<mxfile host="Electron" agent="Mozilla/5.0 (Windows NT 10.0; Win64; x64) AppleWebKit/537.36 (KHTML, like Gecko) draw.io/26.2.15 Chrome/134.0.6998.205 Electron/35.2.1 Safari/537.36" version="26.2.15">
  <diagram name="Seite-1" id="nFq_LFL55TEP2mcO45mx">
    <mxGraphModel dx="5580" dy="4086" grid="1" gridSize="10" guides="1" tooltips="1" connect="1" arrows="1" fold="1" page="1" pageScale="1" pageWidth="827" pageHeight="1169" math="0" shadow="0">
      <root>
        <mxCell id="0" />
        <mxCell id="1" parent="0" />
        <mxCell id="-bWdCGEcmyoKLp3c-T4H-113" style="edgeStyle=orthogonalEdgeStyle;rounded=0;orthogonalLoop=1;jettySize=auto;html=1;exitX=1;exitY=0.5;exitDx=0;exitDy=0;entryX=0;entryY=0.5;entryDx=0;entryDy=0;endArrow=none;startFill=0;" parent="1" source="1CK9TVr6aJSpKjCo0AwL-1" target="-bWdCGEcmyoKLp3c-T4H-56" edge="1">
          <mxGeometry relative="1" as="geometry" />
        </mxCell>
        <mxCell id="-bWdCGEcmyoKLp3c-T4H-114" style="edgeStyle=orthogonalEdgeStyle;rounded=0;orthogonalLoop=1;jettySize=auto;html=1;exitX=1;exitY=0.5;exitDx=0;exitDy=0;entryX=0;entryY=0.5;entryDx=0;entryDy=0;endArrow=none;startFill=0;" parent="1" source="1CK9TVr6aJSpKjCo0AwL-1" target="-bWdCGEcmyoKLp3c-T4H-46" edge="1">
          <mxGeometry relative="1" as="geometry" />
        </mxCell>
        <mxCell id="-bWdCGEcmyoKLp3c-T4H-115" style="edgeStyle=orthogonalEdgeStyle;rounded=0;orthogonalLoop=1;jettySize=auto;html=1;exitX=1;exitY=0.5;exitDx=0;exitDy=0;entryX=0;entryY=0.5;entryDx=0;entryDy=0;endArrow=none;startFill=0;" parent="1" source="1CK9TVr6aJSpKjCo0AwL-1" target="-bWdCGEcmyoKLp3c-T4H-36" edge="1">
          <mxGeometry relative="1" as="geometry" />
        </mxCell>
        <mxCell id="-bWdCGEcmyoKLp3c-T4H-116" style="edgeStyle=orthogonalEdgeStyle;rounded=0;orthogonalLoop=1;jettySize=auto;html=1;exitX=1;exitY=0.5;exitDx=0;exitDy=0;entryX=0;entryY=0.5;entryDx=0;entryDy=0;endArrow=none;startFill=0;" parent="1" source="1CK9TVr6aJSpKjCo0AwL-1" target="-bWdCGEcmyoKLp3c-T4H-66" edge="1">
          <mxGeometry relative="1" as="geometry" />
        </mxCell>
        <mxCell id="-bWdCGEcmyoKLp3c-T4H-117" style="edgeStyle=orthogonalEdgeStyle;rounded=0;orthogonalLoop=1;jettySize=auto;html=1;exitX=1;exitY=0.5;exitDx=0;exitDy=0;entryX=0;entryY=0.5;entryDx=0;entryDy=0;endArrow=none;startFill=0;" parent="1" source="1CK9TVr6aJSpKjCo0AwL-1" target="-bWdCGEcmyoKLp3c-T4H-76" edge="1">
          <mxGeometry relative="1" as="geometry" />
        </mxCell>
        <mxCell id="1CK9TVr6aJSpKjCo0AwL-1" value="Start Azubiprojekt&lt;div&gt;22.04.2025&lt;/div&gt;" style="ellipse;whiteSpace=wrap;html=1;fillColor=#f8cecc;strokeColor=#b85450;fontSize=16;" parent="1" vertex="1">
          <mxGeometry x="-750" y="-520" width="200" height="130" as="geometry" />
        </mxCell>
        <mxCell id="-bWdCGEcmyoKLp3c-T4H-32" value="Projekt Visionierung: Tiere/Charaktere" style="shape=table;startSize=30;container=1;collapsible=0;childLayout=tableLayout;fixedRows=1;rowLines=0;fontStyle=0;fontSize=14;align=left;fillColor=#dae8fc;strokeColor=#6c8ebf;" parent="1" vertex="1">
          <mxGeometry x="-390" y="-810" width="240" height="120" as="geometry" />
        </mxCell>
        <mxCell id="-bWdCGEcmyoKLp3c-T4H-33" value="" style="shape=tableRow;horizontal=0;startSize=0;swimlaneHead=0;swimlaneBody=0;top=0;left=0;bottom=0;right=0;collapsible=0;dropTarget=0;fillColor=none;points=[[0,0.5],[1,0.5]];portConstraint=eastwest;strokeColor=inherit;fontSize=16;" parent="-bWdCGEcmyoKLp3c-T4H-32" vertex="1">
          <mxGeometry y="30" width="240" height="30" as="geometry" />
        </mxCell>
        <mxCell id="-bWdCGEcmyoKLp3c-T4H-34" value="Start" style="shape=partialRectangle;html=1;whiteSpace=wrap;connectable=0;fillColor=none;top=0;left=0;bottom=0;right=0;overflow=hidden;pointerEvents=1;strokeColor=inherit;fontSize=14;" parent="-bWdCGEcmyoKLp3c-T4H-33" vertex="1">
          <mxGeometry width="53" height="30" as="geometry">
            <mxRectangle width="53" height="30" as="alternateBounds" />
          </mxGeometry>
        </mxCell>
        <mxCell id="-bWdCGEcmyoKLp3c-T4H-35" value="22.04.2025" style="shape=partialRectangle;html=1;whiteSpace=wrap;connectable=0;fillColor=none;top=0;left=0;bottom=0;right=0;align=left;spacingLeft=6;overflow=hidden;strokeColor=inherit;fontSize=14;" parent="-bWdCGEcmyoKLp3c-T4H-33" vertex="1">
          <mxGeometry x="53" width="187" height="30" as="geometry">
            <mxRectangle width="187" height="30" as="alternateBounds" />
          </mxGeometry>
        </mxCell>
        <mxCell id="-bWdCGEcmyoKLp3c-T4H-36" value="" style="shape=tableRow;horizontal=0;startSize=0;swimlaneHead=0;swimlaneBody=0;top=0;left=0;bottom=0;right=0;collapsible=0;dropTarget=0;fillColor=none;points=[[0,0.5],[1,0.5]];portConstraint=eastwest;strokeColor=inherit;fontSize=16;" parent="-bWdCGEcmyoKLp3c-T4H-32" vertex="1">
          <mxGeometry y="60" width="240" height="30" as="geometry" />
        </mxCell>
        <mxCell id="-bWdCGEcmyoKLp3c-T4H-37" value="Thema" style="shape=partialRectangle;html=1;whiteSpace=wrap;connectable=0;fillColor=none;top=0;left=0;bottom=0;right=0;overflow=hidden;strokeColor=inherit;fontSize=14;" parent="-bWdCGEcmyoKLp3c-T4H-36" vertex="1">
          <mxGeometry width="53" height="30" as="geometry">
            <mxRectangle width="53" height="30" as="alternateBounds" />
          </mxGeometry>
        </mxCell>
        <mxCell id="-bWdCGEcmyoKLp3c-T4H-38" value="Eigenschaften der Tiere" style="shape=partialRectangle;html=1;whiteSpace=wrap;connectable=0;fillColor=none;top=0;left=0;bottom=0;right=0;align=left;spacingLeft=6;overflow=hidden;strokeColor=inherit;fontSize=14;" parent="-bWdCGEcmyoKLp3c-T4H-36" vertex="1">
          <mxGeometry x="53" width="187" height="30" as="geometry">
            <mxRectangle width="187" height="30" as="alternateBounds" />
          </mxGeometry>
        </mxCell>
        <mxCell id="-bWdCGEcmyoKLp3c-T4H-39" value="" style="shape=tableRow;horizontal=0;startSize=0;swimlaneHead=0;swimlaneBody=0;top=0;left=0;bottom=0;right=0;collapsible=0;dropTarget=0;fillColor=none;points=[[0,0.5],[1,0.5]];portConstraint=eastwest;strokeColor=inherit;fontSize=16;" parent="-bWdCGEcmyoKLp3c-T4H-32" vertex="1">
          <mxGeometry y="90" width="240" height="30" as="geometry" />
        </mxCell>
        <mxCell id="-bWdCGEcmyoKLp3c-T4H-40" value="Ende" style="shape=partialRectangle;html=1;whiteSpace=wrap;connectable=0;fillColor=none;top=0;left=0;bottom=0;right=0;overflow=hidden;strokeColor=inherit;fontSize=14;" parent="-bWdCGEcmyoKLp3c-T4H-39" vertex="1">
          <mxGeometry width="53" height="30" as="geometry">
            <mxRectangle width="53" height="30" as="alternateBounds" />
          </mxGeometry>
        </mxCell>
        <mxCell id="-bWdCGEcmyoKLp3c-T4H-41" value="08.05.2025" style="shape=partialRectangle;html=1;whiteSpace=wrap;connectable=0;fillColor=none;top=0;left=0;bottom=0;right=0;align=left;spacingLeft=6;overflow=hidden;strokeColor=inherit;fontSize=14;" parent="-bWdCGEcmyoKLp3c-T4H-39" vertex="1">
          <mxGeometry x="53" width="187" height="30" as="geometry">
            <mxRectangle width="187" height="30" as="alternateBounds" />
          </mxGeometry>
        </mxCell>
        <mxCell id="-bWdCGEcmyoKLp3c-T4H-42" value="Projekt Visionierung: Frontend" style="shape=table;startSize=30;container=1;collapsible=0;childLayout=tableLayout;fixedRows=1;rowLines=0;fontStyle=0;strokeColor=#82b366;fontSize=14;align=left;fillColor=#d5e8d4;" parent="1" vertex="1">
          <mxGeometry x="-390" y="-670" width="240" height="120" as="geometry" />
        </mxCell>
        <mxCell id="-bWdCGEcmyoKLp3c-T4H-43" value="" style="shape=tableRow;horizontal=0;startSize=0;swimlaneHead=0;swimlaneBody=0;top=0;left=0;bottom=0;right=0;collapsible=0;dropTarget=0;fillColor=none;points=[[0,0.5],[1,0.5]];portConstraint=eastwest;strokeColor=inherit;fontSize=16;" parent="-bWdCGEcmyoKLp3c-T4H-42" vertex="1">
          <mxGeometry y="30" width="240" height="30" as="geometry" />
        </mxCell>
        <mxCell id="-bWdCGEcmyoKLp3c-T4H-44" value="Start" style="shape=partialRectangle;html=1;whiteSpace=wrap;connectable=0;fillColor=none;top=0;left=0;bottom=0;right=0;overflow=hidden;pointerEvents=1;strokeColor=inherit;fontSize=14;" parent="-bWdCGEcmyoKLp3c-T4H-43" vertex="1">
          <mxGeometry width="53" height="30" as="geometry">
            <mxRectangle width="53" height="30" as="alternateBounds" />
          </mxGeometry>
        </mxCell>
        <mxCell id="-bWdCGEcmyoKLp3c-T4H-45" value="22.04.2025" style="shape=partialRectangle;html=1;whiteSpace=wrap;connectable=0;fillColor=none;top=0;left=0;bottom=0;right=0;align=left;spacingLeft=6;overflow=hidden;strokeColor=inherit;fontSize=14;" parent="-bWdCGEcmyoKLp3c-T4H-43" vertex="1">
          <mxGeometry x="53" width="187" height="30" as="geometry">
            <mxRectangle width="187" height="30" as="alternateBounds" />
          </mxGeometry>
        </mxCell>
        <mxCell id="-bWdCGEcmyoKLp3c-T4H-46" value="" style="shape=tableRow;horizontal=0;startSize=0;swimlaneHead=0;swimlaneBody=0;top=0;left=0;bottom=0;right=0;collapsible=0;dropTarget=0;fillColor=none;points=[[0,0.5],[1,0.5]];portConstraint=eastwest;strokeColor=inherit;fontSize=16;" parent="-bWdCGEcmyoKLp3c-T4H-42" vertex="1">
          <mxGeometry y="60" width="240" height="30" as="geometry" />
        </mxCell>
        <mxCell id="-bWdCGEcmyoKLp3c-T4H-47" value="Thema" style="shape=partialRectangle;html=1;whiteSpace=wrap;connectable=0;fillColor=none;top=0;left=0;bottom=0;right=0;overflow=hidden;strokeColor=inherit;fontSize=14;" parent="-bWdCGEcmyoKLp3c-T4H-46" vertex="1">
          <mxGeometry width="53" height="30" as="geometry">
            <mxRectangle width="53" height="30" as="alternateBounds" />
          </mxGeometry>
        </mxCell>
        <mxCell id="-bWdCGEcmyoKLp3c-T4H-48" value="Aussehen der MenÃ¼s" style="shape=partialRectangle;html=1;whiteSpace=wrap;connectable=0;fillColor=none;top=0;left=0;bottom=0;right=0;align=left;spacingLeft=6;overflow=hidden;strokeColor=inherit;fontSize=14;" parent="-bWdCGEcmyoKLp3c-T4H-46" vertex="1">
          <mxGeometry x="53" width="187" height="30" as="geometry">
            <mxRectangle width="187" height="30" as="alternateBounds" />
          </mxGeometry>
        </mxCell>
        <mxCell id="-bWdCGEcmyoKLp3c-T4H-49" value="" style="shape=tableRow;horizontal=0;startSize=0;swimlaneHead=0;swimlaneBody=0;top=0;left=0;bottom=0;right=0;collapsible=0;dropTarget=0;fillColor=none;points=[[0,0.5],[1,0.5]];portConstraint=eastwest;strokeColor=inherit;fontSize=16;" parent="-bWdCGEcmyoKLp3c-T4H-42" vertex="1">
          <mxGeometry y="90" width="240" height="30" as="geometry" />
        </mxCell>
        <mxCell id="-bWdCGEcmyoKLp3c-T4H-50" value="Ende" style="shape=partialRectangle;html=1;whiteSpace=wrap;connectable=0;fillColor=none;top=0;left=0;bottom=0;right=0;overflow=hidden;strokeColor=inherit;fontSize=14;" parent="-bWdCGEcmyoKLp3c-T4H-49" vertex="1">
          <mxGeometry width="53" height="30" as="geometry">
            <mxRectangle width="53" height="30" as="alternateBounds" />
          </mxGeometry>
        </mxCell>
        <mxCell id="-bWdCGEcmyoKLp3c-T4H-51" value="08.05.2025" style="shape=partialRectangle;html=1;whiteSpace=wrap;connectable=0;fillColor=none;top=0;left=0;bottom=0;right=0;align=left;spacingLeft=6;overflow=hidden;strokeColor=inherit;fontSize=14;" parent="-bWdCGEcmyoKLp3c-T4H-49" vertex="1">
          <mxGeometry x="53" width="187" height="30" as="geometry">
            <mxRectangle width="187" height="30" as="alternateBounds" />
          </mxGeometry>
        </mxCell>
        <mxCell id="-bWdCGEcmyoKLp3c-T4H-52" value="Projekt Visionierung: Kampf-Logik" style="shape=table;startSize=30;container=1;collapsible=0;childLayout=tableLayout;fixedRows=1;rowLines=0;fontStyle=0;strokeColor=#d79b00;fontSize=14;align=left;fillColor=#ffe6cc;" parent="1" vertex="1">
          <mxGeometry x="-390" y="-530" width="240" height="120" as="geometry" />
        </mxCell>
        <mxCell id="-bWdCGEcmyoKLp3c-T4H-53" value="" style="shape=tableRow;horizontal=0;startSize=0;swimlaneHead=0;swimlaneBody=0;top=0;left=0;bottom=0;right=0;collapsible=0;dropTarget=0;fillColor=none;points=[[0,0.5],[1,0.5]];portConstraint=eastwest;strokeColor=inherit;fontSize=16;" parent="-bWdCGEcmyoKLp3c-T4H-52" vertex="1">
          <mxGeometry y="30" width="240" height="30" as="geometry" />
        </mxCell>
        <mxCell id="-bWdCGEcmyoKLp3c-T4H-54" value="Start" style="shape=partialRectangle;html=1;whiteSpace=wrap;connectable=0;fillColor=none;top=0;left=0;bottom=0;right=0;overflow=hidden;pointerEvents=1;strokeColor=inherit;fontSize=14;" parent="-bWdCGEcmyoKLp3c-T4H-53" vertex="1">
          <mxGeometry width="53" height="30" as="geometry">
            <mxRectangle width="53" height="30" as="alternateBounds" />
          </mxGeometry>
        </mxCell>
        <mxCell id="-bWdCGEcmyoKLp3c-T4H-55" value="22.04.2025" style="shape=partialRectangle;html=1;whiteSpace=wrap;connectable=0;fillColor=none;top=0;left=0;bottom=0;right=0;align=left;spacingLeft=6;overflow=hidden;strokeColor=inherit;fontSize=14;" parent="-bWdCGEcmyoKLp3c-T4H-53" vertex="1">
          <mxGeometry x="53" width="187" height="30" as="geometry">
            <mxRectangle width="187" height="30" as="alternateBounds" />
          </mxGeometry>
        </mxCell>
        <mxCell id="-bWdCGEcmyoKLp3c-T4H-56" value="" style="shape=tableRow;horizontal=0;startSize=0;swimlaneHead=0;swimlaneBody=0;top=0;left=0;bottom=0;right=0;collapsible=0;dropTarget=0;fillColor=none;points=[[0,0.5],[1,0.5]];portConstraint=eastwest;strokeColor=inherit;fontSize=16;" parent="-bWdCGEcmyoKLp3c-T4H-52" vertex="1">
          <mxGeometry y="60" width="240" height="30" as="geometry" />
        </mxCell>
        <mxCell id="-bWdCGEcmyoKLp3c-T4H-57" value="Thema" style="shape=partialRectangle;html=1;whiteSpace=wrap;connectable=0;fillColor=none;top=0;left=0;bottom=0;right=0;overflow=hidden;strokeColor=inherit;fontSize=14;" parent="-bWdCGEcmyoKLp3c-T4H-56" vertex="1">
          <mxGeometry width="53" height="30" as="geometry">
            <mxRectangle width="53" height="30" as="alternateBounds" />
          </mxGeometry>
        </mxCell>
        <mxCell id="-bWdCGEcmyoKLp3c-T4H-58" value="Wie funktioniert der Kampf" style="shape=partialRectangle;html=1;whiteSpace=wrap;connectable=0;fillColor=none;top=0;left=0;bottom=0;right=0;align=left;spacingLeft=6;overflow=hidden;strokeColor=inherit;fontSize=14;" parent="-bWdCGEcmyoKLp3c-T4H-56" vertex="1">
          <mxGeometry x="53" width="187" height="30" as="geometry">
            <mxRectangle width="187" height="30" as="alternateBounds" />
          </mxGeometry>
        </mxCell>
        <mxCell id="-bWdCGEcmyoKLp3c-T4H-59" value="" style="shape=tableRow;horizontal=0;startSize=0;swimlaneHead=0;swimlaneBody=0;top=0;left=0;bottom=0;right=0;collapsible=0;dropTarget=0;fillColor=none;points=[[0,0.5],[1,0.5]];portConstraint=eastwest;strokeColor=inherit;fontSize=16;" parent="-bWdCGEcmyoKLp3c-T4H-52" vertex="1">
          <mxGeometry y="90" width="240" height="30" as="geometry" />
        </mxCell>
        <mxCell id="-bWdCGEcmyoKLp3c-T4H-60" value="Ende" style="shape=partialRectangle;html=1;whiteSpace=wrap;connectable=0;fillColor=none;top=0;left=0;bottom=0;right=0;overflow=hidden;strokeColor=inherit;fontSize=14;" parent="-bWdCGEcmyoKLp3c-T4H-59" vertex="1">
          <mxGeometry width="53" height="30" as="geometry">
            <mxRectangle width="53" height="30" as="alternateBounds" />
          </mxGeometry>
        </mxCell>
        <mxCell id="-bWdCGEcmyoKLp3c-T4H-61" value="08.05.2025" style="shape=partialRectangle;html=1;whiteSpace=wrap;connectable=0;fillColor=none;top=0;left=0;bottom=0;right=0;align=left;spacingLeft=6;overflow=hidden;strokeColor=inherit;fontSize=14;" parent="-bWdCGEcmyoKLp3c-T4H-59" vertex="1">
          <mxGeometry x="53" width="187" height="30" as="geometry">
            <mxRectangle width="187" height="30" as="alternateBounds" />
          </mxGeometry>
        </mxCell>
        <mxCell id="-bWdCGEcmyoKLp3c-T4H-62" value="Projekt Visionierung: Shop-Logik" style="shape=table;startSize=30;container=1;collapsible=0;childLayout=tableLayout;fixedRows=1;rowLines=0;fontStyle=0;strokeColor=#d6b656;fontSize=14;align=left;fillColor=#fff2cc;" parent="1" vertex="1">
          <mxGeometry x="-390" y="-390" width="240" height="120" as="geometry" />
        </mxCell>
        <mxCell id="-bWdCGEcmyoKLp3c-T4H-63" value="" style="shape=tableRow;horizontal=0;startSize=0;swimlaneHead=0;swimlaneBody=0;top=0;left=0;bottom=0;right=0;collapsible=0;dropTarget=0;fillColor=none;points=[[0,0.5],[1,0.5]];portConstraint=eastwest;strokeColor=inherit;fontSize=16;" parent="-bWdCGEcmyoKLp3c-T4H-62" vertex="1">
          <mxGeometry y="30" width="240" height="30" as="geometry" />
        </mxCell>
        <mxCell id="-bWdCGEcmyoKLp3c-T4H-64" value="Start" style="shape=partialRectangle;html=1;whiteSpace=wrap;connectable=0;fillColor=none;top=0;left=0;bottom=0;right=0;overflow=hidden;pointerEvents=1;strokeColor=inherit;fontSize=14;" parent="-bWdCGEcmyoKLp3c-T4H-63" vertex="1">
          <mxGeometry width="53" height="30" as="geometry">
            <mxRectangle width="53" height="30" as="alternateBounds" />
          </mxGeometry>
        </mxCell>
        <mxCell id="-bWdCGEcmyoKLp3c-T4H-65" value="22.04.2025" style="shape=partialRectangle;html=1;whiteSpace=wrap;connectable=0;fillColor=none;top=0;left=0;bottom=0;right=0;align=left;spacingLeft=6;overflow=hidden;strokeColor=inherit;fontSize=14;" parent="-bWdCGEcmyoKLp3c-T4H-63" vertex="1">
          <mxGeometry x="53" width="187" height="30" as="geometry">
            <mxRectangle width="187" height="30" as="alternateBounds" />
          </mxGeometry>
        </mxCell>
        <mxCell id="-bWdCGEcmyoKLp3c-T4H-66" value="" style="shape=tableRow;horizontal=0;startSize=0;swimlaneHead=0;swimlaneBody=0;top=0;left=0;bottom=0;right=0;collapsible=0;dropTarget=0;fillColor=none;points=[[0,0.5],[1,0.5]];portConstraint=eastwest;strokeColor=inherit;fontSize=16;" parent="-bWdCGEcmyoKLp3c-T4H-62" vertex="1">
          <mxGeometry y="60" width="240" height="30" as="geometry" />
        </mxCell>
        <mxCell id="-bWdCGEcmyoKLp3c-T4H-67" value="Thema" style="shape=partialRectangle;html=1;whiteSpace=wrap;connectable=0;fillColor=none;top=0;left=0;bottom=0;right=0;overflow=hidden;strokeColor=inherit;fontSize=14;" parent="-bWdCGEcmyoKLp3c-T4H-66" vertex="1">
          <mxGeometry width="53" height="30" as="geometry">
            <mxRectangle width="53" height="30" as="alternateBounds" />
          </mxGeometry>
        </mxCell>
        <mxCell id="-bWdCGEcmyoKLp3c-T4H-68" value="Wie funktioniert der Shop" style="shape=partialRectangle;html=1;whiteSpace=wrap;connectable=0;fillColor=none;top=0;left=0;bottom=0;right=0;align=left;spacingLeft=6;overflow=hidden;strokeColor=inherit;fontSize=14;" parent="-bWdCGEcmyoKLp3c-T4H-66" vertex="1">
          <mxGeometry x="53" width="187" height="30" as="geometry">
            <mxRectangle width="187" height="30" as="alternateBounds" />
          </mxGeometry>
        </mxCell>
        <mxCell id="-bWdCGEcmyoKLp3c-T4H-69" value="" style="shape=tableRow;horizontal=0;startSize=0;swimlaneHead=0;swimlaneBody=0;top=0;left=0;bottom=0;right=0;collapsible=0;dropTarget=0;fillColor=none;points=[[0,0.5],[1,0.5]];portConstraint=eastwest;strokeColor=inherit;fontSize=16;" parent="-bWdCGEcmyoKLp3c-T4H-62" vertex="1">
          <mxGeometry y="90" width="240" height="30" as="geometry" />
        </mxCell>
        <mxCell id="-bWdCGEcmyoKLp3c-T4H-70" value="Ende" style="shape=partialRectangle;html=1;whiteSpace=wrap;connectable=0;fillColor=none;top=0;left=0;bottom=0;right=0;overflow=hidden;strokeColor=inherit;fontSize=14;" parent="-bWdCGEcmyoKLp3c-T4H-69" vertex="1">
          <mxGeometry width="53" height="30" as="geometry">
            <mxRectangle width="53" height="30" as="alternateBounds" />
          </mxGeometry>
        </mxCell>
        <mxCell id="-bWdCGEcmyoKLp3c-T4H-71" value="08.05.2025" style="shape=partialRectangle;html=1;whiteSpace=wrap;connectable=0;fillColor=none;top=0;left=0;bottom=0;right=0;align=left;spacingLeft=6;overflow=hidden;strokeColor=inherit;fontSize=14;" parent="-bWdCGEcmyoKLp3c-T4H-69" vertex="1">
          <mxGeometry x="53" width="187" height="30" as="geometry">
            <mxRectangle width="187" height="30" as="alternateBounds" />
          </mxGeometry>
        </mxCell>
        <mxCell id="-bWdCGEcmyoKLp3c-T4H-72" value="Projekt Visionierung: Kommunikation" style="shape=table;startSize=30;container=1;collapsible=0;childLayout=tableLayout;fixedRows=1;rowLines=0;fontStyle=0;strokeColor=#9673a6;fontSize=14;align=left;fillColor=#e1d5e7;" parent="1" vertex="1">
          <mxGeometry x="-390" y="-250" width="240" height="120" as="geometry" />
        </mxCell>
        <mxCell id="-bWdCGEcmyoKLp3c-T4H-73" value="" style="shape=tableRow;horizontal=0;startSize=0;swimlaneHead=0;swimlaneBody=0;top=0;left=0;bottom=0;right=0;collapsible=0;dropTarget=0;fillColor=none;points=[[0,0.5],[1,0.5]];portConstraint=eastwest;strokeColor=inherit;fontSize=16;" parent="-bWdCGEcmyoKLp3c-T4H-72" vertex="1">
          <mxGeometry y="30" width="240" height="30" as="geometry" />
        </mxCell>
        <mxCell id="-bWdCGEcmyoKLp3c-T4H-74" value="Start" style="shape=partialRectangle;html=1;whiteSpace=wrap;connectable=0;fillColor=none;top=0;left=0;bottom=0;right=0;overflow=hidden;pointerEvents=1;strokeColor=inherit;fontSize=14;" parent="-bWdCGEcmyoKLp3c-T4H-73" vertex="1">
          <mxGeometry width="53" height="30" as="geometry">
            <mxRectangle width="53" height="30" as="alternateBounds" />
          </mxGeometry>
        </mxCell>
        <mxCell id="-bWdCGEcmyoKLp3c-T4H-75" value="22.04.2025" style="shape=partialRectangle;html=1;whiteSpace=wrap;connectable=0;fillColor=none;top=0;left=0;bottom=0;right=0;align=left;spacingLeft=6;overflow=hidden;strokeColor=inherit;fontSize=14;" parent="-bWdCGEcmyoKLp3c-T4H-73" vertex="1">
          <mxGeometry x="53" width="187" height="30" as="geometry">
            <mxRectangle width="187" height="30" as="alternateBounds" />
          </mxGeometry>
        </mxCell>
        <mxCell id="-bWdCGEcmyoKLp3c-T4H-76" value="" style="shape=tableRow;horizontal=0;startSize=0;swimlaneHead=0;swimlaneBody=0;top=0;left=0;bottom=0;right=0;collapsible=0;dropTarget=0;fillColor=none;points=[[0,0.5],[1,0.5]];portConstraint=eastwest;strokeColor=inherit;fontSize=16;" parent="-bWdCGEcmyoKLp3c-T4H-72" vertex="1">
          <mxGeometry y="60" width="240" height="30" as="geometry" />
        </mxCell>
        <mxCell id="-bWdCGEcmyoKLp3c-T4H-77" value="Thema" style="shape=partialRectangle;html=1;whiteSpace=wrap;connectable=0;fillColor=none;top=0;left=0;bottom=0;right=0;overflow=hidden;strokeColor=inherit;fontSize=14;" parent="-bWdCGEcmyoKLp3c-T4H-76" vertex="1">
          <mxGeometry width="53" height="30" as="geometry">
            <mxRectangle width="53" height="30" as="alternateBounds" />
          </mxGeometry>
        </mxCell>
        <mxCell id="-bWdCGEcmyoKLp3c-T4H-78" value="Was braucht welche Daten" style="shape=partialRectangle;html=1;whiteSpace=wrap;connectable=0;fillColor=none;top=0;left=0;bottom=0;right=0;align=left;spacingLeft=6;overflow=hidden;strokeColor=inherit;fontSize=14;" parent="-bWdCGEcmyoKLp3c-T4H-76" vertex="1">
          <mxGeometry x="53" width="187" height="30" as="geometry">
            <mxRectangle width="187" height="30" as="alternateBounds" />
          </mxGeometry>
        </mxCell>
        <mxCell id="-bWdCGEcmyoKLp3c-T4H-79" value="" style="shape=tableRow;horizontal=0;startSize=0;swimlaneHead=0;swimlaneBody=0;top=0;left=0;bottom=0;right=0;collapsible=0;dropTarget=0;fillColor=none;points=[[0,0.5],[1,0.5]];portConstraint=eastwest;strokeColor=inherit;fontSize=16;" parent="-bWdCGEcmyoKLp3c-T4H-72" vertex="1">
          <mxGeometry y="90" width="240" height="30" as="geometry" />
        </mxCell>
        <mxCell id="-bWdCGEcmyoKLp3c-T4H-80" value="Ende" style="shape=partialRectangle;html=1;whiteSpace=wrap;connectable=0;fillColor=none;top=0;left=0;bottom=0;right=0;overflow=hidden;strokeColor=inherit;fontSize=14;" parent="-bWdCGEcmyoKLp3c-T4H-79" vertex="1">
          <mxGeometry width="53" height="30" as="geometry">
            <mxRectangle width="53" height="30" as="alternateBounds" />
          </mxGeometry>
        </mxCell>
        <mxCell id="-bWdCGEcmyoKLp3c-T4H-81" value="30.04.2025" style="shape=partialRectangle;html=1;whiteSpace=wrap;connectable=0;fillColor=none;top=0;left=0;bottom=0;right=0;align=left;spacingLeft=6;overflow=hidden;strokeColor=inherit;fontSize=14;" parent="-bWdCGEcmyoKLp3c-T4H-79" vertex="1">
          <mxGeometry x="53" width="187" height="30" as="geometry">
            <mxRectangle width="187" height="30" as="alternateBounds" />
          </mxGeometry>
        </mxCell>
        <mxCell id="-bWdCGEcmyoKLp3c-T4H-136" style="edgeStyle=orthogonalEdgeStyle;rounded=0;orthogonalLoop=1;jettySize=auto;html=1;exitX=0.5;exitY=0;exitDx=0;exitDy=0;entryX=0;entryY=0.5;entryDx=0;entryDy=0;endArrow=none;startFill=0;" parent="1" source="-bWdCGEcmyoKLp3c-T4H-83" target="-bWdCGEcmyoKLp3c-T4H-127" edge="1">
          <mxGeometry relative="1" as="geometry" />
        </mxCell>
        <mxCell id="-bWdCGEcmyoKLp3c-T4H-83" value="Projekt Visionierung: Planung" style="shape=table;startSize=30;container=1;collapsible=0;childLayout=tableLayout;fixedRows=1;rowLines=0;fontStyle=0;strokeColor=#9673a6;fontSize=14;align=left;fillColor=#e1d5e7;" parent="1" vertex="1">
          <mxGeometry x="-110" y="-250" width="240" height="120" as="geometry" />
        </mxCell>
        <mxCell id="-bWdCGEcmyoKLp3c-T4H-84" value="" style="shape=tableRow;horizontal=0;startSize=0;swimlaneHead=0;swimlaneBody=0;top=0;left=0;bottom=0;right=0;collapsible=0;dropTarget=0;fillColor=none;points=[[0,0.5],[1,0.5]];portConstraint=eastwest;strokeColor=inherit;fontSize=16;" parent="-bWdCGEcmyoKLp3c-T4H-83" vertex="1">
          <mxGeometry y="30" width="240" height="30" as="geometry" />
        </mxCell>
        <mxCell id="-bWdCGEcmyoKLp3c-T4H-85" value="Start" style="shape=partialRectangle;html=1;whiteSpace=wrap;connectable=0;fillColor=none;top=0;left=0;bottom=0;right=0;overflow=hidden;pointerEvents=1;strokeColor=inherit;fontSize=14;" parent="-bWdCGEcmyoKLp3c-T4H-84" vertex="1">
          <mxGeometry width="53" height="30" as="geometry">
            <mxRectangle width="53" height="30" as="alternateBounds" />
          </mxGeometry>
        </mxCell>
        <mxCell id="-bWdCGEcmyoKLp3c-T4H-86" value="05.05.2025" style="shape=partialRectangle;html=1;whiteSpace=wrap;connectable=0;fillColor=none;top=0;left=0;bottom=0;right=0;align=left;spacingLeft=6;overflow=hidden;strokeColor=inherit;fontSize=14;" parent="-bWdCGEcmyoKLp3c-T4H-84" vertex="1">
          <mxGeometry x="53" width="187" height="30" as="geometry">
            <mxRectangle width="187" height="30" as="alternateBounds" />
          </mxGeometry>
        </mxCell>
        <mxCell id="-bWdCGEcmyoKLp3c-T4H-87" value="" style="shape=tableRow;horizontal=0;startSize=0;swimlaneHead=0;swimlaneBody=0;top=0;left=0;bottom=0;right=0;collapsible=0;dropTarget=0;fillColor=none;points=[[0,0.5],[1,0.5]];portConstraint=eastwest;strokeColor=inherit;fontSize=16;" parent="-bWdCGEcmyoKLp3c-T4H-83" vertex="1">
          <mxGeometry y="60" width="240" height="30" as="geometry" />
        </mxCell>
        <mxCell id="-bWdCGEcmyoKLp3c-T4H-88" value="Thema" style="shape=partialRectangle;html=1;whiteSpace=wrap;connectable=0;fillColor=none;top=0;left=0;bottom=0;right=0;overflow=hidden;strokeColor=inherit;fontSize=14;" parent="-bWdCGEcmyoKLp3c-T4H-87" vertex="1">
          <mxGeometry width="53" height="30" as="geometry">
            <mxRectangle width="53" height="30" as="alternateBounds" />
          </mxGeometry>
        </mxCell>
        <mxCell id="-bWdCGEcmyoKLp3c-T4H-89" value="Planungsdiagramm" style="shape=partialRectangle;html=1;whiteSpace=wrap;connectable=0;fillColor=none;top=0;left=0;bottom=0;right=0;align=left;spacingLeft=6;overflow=hidden;strokeColor=inherit;fontSize=14;" parent="-bWdCGEcmyoKLp3c-T4H-87" vertex="1">
          <mxGeometry x="53" width="187" height="30" as="geometry">
            <mxRectangle width="187" height="30" as="alternateBounds" />
          </mxGeometry>
        </mxCell>
        <mxCell id="-bWdCGEcmyoKLp3c-T4H-90" value="" style="shape=tableRow;horizontal=0;startSize=0;swimlaneHead=0;swimlaneBody=0;top=0;left=0;bottom=0;right=0;collapsible=0;dropTarget=0;fillColor=none;points=[[0,0.5],[1,0.5]];portConstraint=eastwest;strokeColor=inherit;fontSize=16;" parent="-bWdCGEcmyoKLp3c-T4H-83" vertex="1">
          <mxGeometry y="90" width="240" height="30" as="geometry" />
        </mxCell>
        <mxCell id="-bWdCGEcmyoKLp3c-T4H-91" value="Ende" style="shape=partialRectangle;html=1;whiteSpace=wrap;connectable=0;fillColor=none;top=0;left=0;bottom=0;right=0;overflow=hidden;strokeColor=inherit;fontSize=14;" parent="-bWdCGEcmyoKLp3c-T4H-90" vertex="1">
          <mxGeometry width="53" height="30" as="geometry">
            <mxRectangle width="53" height="30" as="alternateBounds" />
          </mxGeometry>
        </mxCell>
        <mxCell id="-bWdCGEcmyoKLp3c-T4H-92" value="08.05.2025" style="shape=partialRectangle;html=1;whiteSpace=wrap;connectable=0;fillColor=none;top=0;left=0;bottom=0;right=0;align=left;spacingLeft=6;overflow=hidden;strokeColor=inherit;fontSize=14;" parent="-bWdCGEcmyoKLp3c-T4H-90" vertex="1">
          <mxGeometry x="53" width="187" height="30" as="geometry">
            <mxRectangle width="187" height="30" as="alternateBounds" />
          </mxGeometry>
        </mxCell>
        <mxCell id="-bWdCGEcmyoKLp3c-T4H-105" style="edgeStyle=orthogonalEdgeStyle;rounded=0;orthogonalLoop=1;jettySize=auto;html=1;exitX=1;exitY=0.5;exitDx=0;exitDy=0;entryX=0;entryY=0.5;entryDx=0;entryDy=0;endArrow=none;startFill=0;" parent="1" source="-bWdCGEcmyoKLp3c-T4H-76" target="-bWdCGEcmyoKLp3c-T4H-87" edge="1">
          <mxGeometry relative="1" as="geometry" />
        </mxCell>
        <mxCell id="-bWdCGEcmyoKLp3c-T4H-124" value="" style="group;fontSize=14;" parent="1" vertex="1" connectable="0">
          <mxGeometry x="-750" y="-830" width="200" height="240" as="geometry" />
        </mxCell>
        <mxCell id="-bWdCGEcmyoKLp3c-T4H-118" value="&lt;font style=&quot;font-size: 14px;&quot;&gt;ZustÃ¤ndigkeiten&lt;/font&gt;" style="swimlane;fontStyle=0;childLayout=stackLayout;horizontal=1;startSize=30;horizontalStack=0;resizeParent=1;resizeParentMax=0;resizeLast=0;collapsible=1;marginBottom=0;whiteSpace=wrap;html=1;fillColor=#f8cecc;strokeColor=#b85450;container=0;" parent="-bWdCGEcmyoKLp3c-T4H-124" vertex="1">
          <mxGeometry width="200" height="240" as="geometry" />
        </mxCell>
        <mxCell id="-bWdCGEcmyoKLp3c-T4H-122" value="Meryem" style="text;strokeColor=#d6b656;fillColor=#fff2cc;align=left;verticalAlign=middle;spacingLeft=4;spacingRight=4;overflow=hidden;points=[[0,0.5],[1,0.5]];portConstraint=eastwest;rotatable=0;whiteSpace=wrap;html=1;fontSize=14;" parent="-bWdCGEcmyoKLp3c-T4H-124" vertex="1">
          <mxGeometry y="160" width="200" height="40" as="geometry" />
        </mxCell>
        <mxCell id="-bWdCGEcmyoKLp3c-T4H-123" value="Joshua" style="text;strokeColor=#9673a6;fillColor=#e1d5e7;align=left;verticalAlign=middle;spacingLeft=4;spacingRight=4;overflow=hidden;points=[[0,0.5],[1,0.5]];portConstraint=eastwest;rotatable=0;whiteSpace=wrap;html=1;fontSize=14;" parent="-bWdCGEcmyoKLp3c-T4H-124" vertex="1">
          <mxGeometry y="200.00000000000006" width="200" height="40" as="geometry" />
        </mxCell>
        <mxCell id="-bWdCGEcmyoKLp3c-T4H-119" value="GÃ¶kdeniz" style="text;strokeColor=#6c8ebf;fillColor=#dae8fc;align=left;verticalAlign=middle;spacingLeft=4;spacingRight=4;overflow=hidden;points=[[0,0.5],[1,0.5]];portConstraint=eastwest;rotatable=0;whiteSpace=wrap;html=1;fontSize=14;" parent="-bWdCGEcmyoKLp3c-T4H-124" vertex="1">
          <mxGeometry y="40" width="200" height="40" as="geometry" />
        </mxCell>
        <mxCell id="-bWdCGEcmyoKLp3c-T4H-120" value="Matthias" style="text;strokeColor=#82b366;fillColor=#d5e8d4;align=left;verticalAlign=middle;spacingLeft=4;spacingRight=4;overflow=hidden;points=[[0,0.5],[1,0.5]];portConstraint=eastwest;rotatable=0;whiteSpace=wrap;html=1;fontSize=14;" parent="-bWdCGEcmyoKLp3c-T4H-124" vertex="1">
          <mxGeometry y="80" width="200" height="40" as="geometry" />
        </mxCell>
        <mxCell id="-bWdCGEcmyoKLp3c-T4H-121" value="Tobias" style="text;strokeColor=#d79b00;fillColor=#ffe6cc;align=left;verticalAlign=middle;spacingLeft=4;spacingRight=4;overflow=hidden;points=[[0,0.5],[1,0.5]];portConstraint=eastwest;rotatable=0;whiteSpace=wrap;html=1;fontSize=14;" parent="-bWdCGEcmyoKLp3c-T4H-124" vertex="1">
          <mxGeometry y="120" width="200" height="40" as="geometry" />
        </mxCell>
        <mxCell id="-bWdCGEcmyoKLp3c-T4H-137" style="edgeStyle=orthogonalEdgeStyle;rounded=0;orthogonalLoop=1;jettySize=auto;html=1;exitX=1;exitY=0.5;exitDx=0;exitDy=0;entryX=0;entryY=0.5;entryDx=0;entryDy=0;endArrow=none;startFill=0;" parent="1" source="-bWdCGEcmyoKLp3c-T4H-66" target="-bWdCGEcmyoKLp3c-T4H-127" edge="1">
          <mxGeometry relative="1" as="geometry" />
        </mxCell>
        <mxCell id="-bWdCGEcmyoKLp3c-T4H-138" style="edgeStyle=orthogonalEdgeStyle;rounded=0;orthogonalLoop=1;jettySize=auto;html=1;exitX=1;exitY=0.5;exitDx=0;exitDy=0;entryX=0;entryY=0.5;entryDx=0;entryDy=0;endArrow=none;startFill=0;" parent="1" source="-bWdCGEcmyoKLp3c-T4H-56" target="-bWdCGEcmyoKLp3c-T4H-127" edge="1">
          <mxGeometry relative="1" as="geometry" />
        </mxCell>
        <mxCell id="-bWdCGEcmyoKLp3c-T4H-139" style="edgeStyle=orthogonalEdgeStyle;rounded=0;orthogonalLoop=1;jettySize=auto;html=1;exitX=1;exitY=0.5;exitDx=0;exitDy=0;entryX=0;entryY=0.5;entryDx=0;entryDy=0;endArrow=none;startFill=0;" parent="1" source="-bWdCGEcmyoKLp3c-T4H-46" target="-bWdCGEcmyoKLp3c-T4H-127" edge="1">
          <mxGeometry relative="1" as="geometry" />
        </mxCell>
        <mxCell id="-bWdCGEcmyoKLp3c-T4H-141" style="edgeStyle=orthogonalEdgeStyle;rounded=0;orthogonalLoop=1;jettySize=auto;html=1;exitX=1;exitY=0.5;exitDx=0;exitDy=0;entryX=0;entryY=0.5;entryDx=0;entryDy=0;endArrow=none;startFill=0;" parent="1" source="-bWdCGEcmyoKLp3c-T4H-36" target="-bWdCGEcmyoKLp3c-T4H-127" edge="1">
          <mxGeometry relative="1" as="geometry" />
        </mxCell>
        <mxCell id="-bWdCGEcmyoKLp3c-T4H-142" value="P H A S E&amp;nbsp; &amp;nbsp;1 :&amp;nbsp; &amp;nbsp;V I S U A L I S I E R U N G&amp;nbsp; &amp;nbsp;U N D&amp;nbsp; &amp;nbsp;F O R M E N&amp;nbsp; &amp;nbsp;D E R&amp;nbsp; &amp;nbsp;I D E E" style="html=1;shadow=0;dashed=0;align=center;verticalAlign=middle;shape=mxgraph.arrows2.arrow;dy=0;dx=30;notch=30;fontSize=16;fontStyle=1;fillColor=#eeeeee;strokeColor=#36393d;" parent="1" vertex="1">
          <mxGeometry x="-750" y="-110" width="1080" height="40" as="geometry" />
        </mxCell>
        <mxCell id="-bWdCGEcmyoKLp3c-T4H-143" value="P H A S E&amp;nbsp; &amp;nbsp;2 :&amp;nbsp; &amp;nbsp;D A T E N B A N K&amp;nbsp; &amp;nbsp;(&amp;amp;&amp;nbsp; &amp;nbsp;F R O N T E N D)" style="html=1;shadow=0;dashed=0;align=center;verticalAlign=middle;shape=mxgraph.arrows2.arrow;dy=0;dx=30;notch=30;fontSize=16;fontStyle=1;fillColor=#f9f7ed;strokeColor=#36393d;" parent="1" vertex="1">
          <mxGeometry x="300" y="-110" width="510" height="40" as="geometry" />
        </mxCell>
        <mxCell id="-bWdCGEcmyoKLp3c-T4H-144" value="Backend: Tier-Klasse" style="shape=table;startSize=30;container=1;collapsible=0;childLayout=tableLayout;fixedRows=1;rowLines=0;fontStyle=0;fontSize=14;align=left;fillColor=#f5f5f5;strokeColor=#666666;fontColor=#333333;" parent="1" vertex="1">
          <mxGeometry x="810" y="-810" width="260" height="120" as="geometry" />
        </mxCell>
        <mxCell id="-bWdCGEcmyoKLp3c-T4H-145" value="" style="shape=tableRow;horizontal=0;startSize=0;swimlaneHead=0;swimlaneBody=0;top=0;left=0;bottom=0;right=0;collapsible=0;dropTarget=0;fillColor=none;points=[[0,0.5],[1,0.5]];portConstraint=eastwest;strokeColor=inherit;fontSize=16;" parent="-bWdCGEcmyoKLp3c-T4H-144" vertex="1">
          <mxGeometry y="30" width="260" height="30" as="geometry" />
        </mxCell>
        <mxCell id="-bWdCGEcmyoKLp3c-T4H-146" value="Start" style="shape=partialRectangle;html=1;whiteSpace=wrap;connectable=0;fillColor=none;top=0;left=0;bottom=0;right=0;overflow=hidden;pointerEvents=1;strokeColor=inherit;fontSize=14;" parent="-bWdCGEcmyoKLp3c-T4H-145" vertex="1">
          <mxGeometry width="57" height="30" as="geometry">
            <mxRectangle width="57" height="30" as="alternateBounds" />
          </mxGeometry>
        </mxCell>
        <mxCell id="-bWdCGEcmyoKLp3c-T4H-147" value="12.05.2025" style="shape=partialRectangle;html=1;whiteSpace=wrap;connectable=0;fillColor=none;top=0;left=0;bottom=0;right=0;align=left;spacingLeft=6;overflow=hidden;strokeColor=inherit;fontSize=14;" parent="-bWdCGEcmyoKLp3c-T4H-145" vertex="1">
          <mxGeometry x="57" width="203" height="30" as="geometry">
            <mxRectangle width="203" height="30" as="alternateBounds" />
          </mxGeometry>
        </mxCell>
        <mxCell id="-bWdCGEcmyoKLp3c-T4H-148" value="" style="shape=tableRow;horizontal=0;startSize=0;swimlaneHead=0;swimlaneBody=0;top=0;left=0;bottom=0;right=0;collapsible=0;dropTarget=0;fillColor=none;points=[[0,0.5],[1,0.5]];portConstraint=eastwest;strokeColor=inherit;fontSize=16;" parent="-bWdCGEcmyoKLp3c-T4H-144" vertex="1">
          <mxGeometry y="60" width="260" height="30" as="geometry" />
        </mxCell>
        <mxCell id="-bWdCGEcmyoKLp3c-T4H-149" value="Thema" style="shape=partialRectangle;html=1;whiteSpace=wrap;connectable=0;fillColor=none;top=0;left=0;bottom=0;right=0;overflow=hidden;strokeColor=inherit;fontSize=14;" parent="-bWdCGEcmyoKLp3c-T4H-148" vertex="1">
          <mxGeometry width="57" height="30" as="geometry">
            <mxRectangle width="57" height="30" as="alternateBounds" />
          </mxGeometry>
        </mxCell>
        <mxCell id="-bWdCGEcmyoKLp3c-T4H-150" value="Klasse programmieren" style="shape=partialRectangle;html=1;whiteSpace=wrap;connectable=0;fillColor=none;top=0;left=0;bottom=0;right=0;align=left;spacingLeft=6;overflow=hidden;strokeColor=inherit;fontSize=14;" parent="-bWdCGEcmyoKLp3c-T4H-148" vertex="1">
          <mxGeometry x="57" width="203" height="30" as="geometry">
            <mxRectangle width="203" height="30" as="alternateBounds" />
          </mxGeometry>
        </mxCell>
        <mxCell id="-bWdCGEcmyoKLp3c-T4H-151" value="" style="shape=tableRow;horizontal=0;startSize=0;swimlaneHead=0;swimlaneBody=0;top=0;left=0;bottom=0;right=0;collapsible=0;dropTarget=0;fillColor=none;points=[[0,0.5],[1,0.5]];portConstraint=eastwest;strokeColor=inherit;fontSize=16;" parent="-bWdCGEcmyoKLp3c-T4H-144" vertex="1">
          <mxGeometry y="90" width="260" height="30" as="geometry" />
        </mxCell>
        <mxCell id="-bWdCGEcmyoKLp3c-T4H-152" value="Ende" style="shape=partialRectangle;html=1;whiteSpace=wrap;connectable=0;fillColor=none;top=0;left=0;bottom=0;right=0;overflow=hidden;strokeColor=inherit;fontSize=14;" parent="-bWdCGEcmyoKLp3c-T4H-151" vertex="1">
          <mxGeometry width="57" height="30" as="geometry">
            <mxRectangle width="57" height="30" as="alternateBounds" />
          </mxGeometry>
        </mxCell>
        <mxCell id="-bWdCGEcmyoKLp3c-T4H-153" value="16.05.2025" style="shape=partialRectangle;html=1;whiteSpace=wrap;connectable=0;fillColor=none;top=0;left=0;bottom=0;right=0;align=left;spacingLeft=6;overflow=hidden;strokeColor=inherit;fontSize=14;" parent="-bWdCGEcmyoKLp3c-T4H-151" vertex="1">
          <mxGeometry x="57" width="203" height="30" as="geometry">
            <mxRectangle width="203" height="30" as="alternateBounds" />
          </mxGeometry>
        </mxCell>
        <mxCell id="-bWdCGEcmyoKLp3c-T4H-154" value="P H A S E&amp;nbsp; &amp;nbsp;3 :&amp;nbsp; &amp;nbsp;B A C K E N D&amp;nbsp; &amp;nbsp;-&amp;nbsp; &amp;nbsp;E R S T E&amp;nbsp; &amp;nbsp;F U N K T I O N E N" style="html=1;shadow=0;dashed=0;align=center;verticalAlign=middle;shape=mxgraph.arrows2.arrow;dy=0;dx=30;notch=30;fontSize=16;fontStyle=1;fillColor=#eeeeee;strokeColor=#36393d;" parent="1" vertex="1">
          <mxGeometry x="780" y="-110" width="840" height="40" as="geometry" />
        </mxCell>
        <mxCell id="-bWdCGEcmyoKLp3c-T4H-155" value="Backend: Shop-Klasse" style="shape=table;startSize=30;container=1;collapsible=0;childLayout=tableLayout;fixedRows=1;rowLines=0;fontStyle=0;strokeColor=#666666;fontSize=14;align=left;fillColor=#f5f5f5;fontColor=#333333;" parent="1" vertex="1">
          <mxGeometry x="810" y="-670" width="260" height="120" as="geometry" />
        </mxCell>
        <mxCell id="-bWdCGEcmyoKLp3c-T4H-156" value="" style="shape=tableRow;horizontal=0;startSize=0;swimlaneHead=0;swimlaneBody=0;top=0;left=0;bottom=0;right=0;collapsible=0;dropTarget=0;fillColor=none;points=[[0,0.5],[1,0.5]];portConstraint=eastwest;strokeColor=inherit;fontSize=16;" parent="-bWdCGEcmyoKLp3c-T4H-155" vertex="1">
          <mxGeometry y="30" width="260" height="30" as="geometry" />
        </mxCell>
        <mxCell id="-bWdCGEcmyoKLp3c-T4H-157" value="Start" style="shape=partialRectangle;html=1;whiteSpace=wrap;connectable=0;fillColor=none;top=0;left=0;bottom=0;right=0;overflow=hidden;pointerEvents=1;strokeColor=inherit;fontSize=14;" parent="-bWdCGEcmyoKLp3c-T4H-156" vertex="1">
          <mxGeometry width="57" height="30" as="geometry">
            <mxRectangle width="57" height="30" as="alternateBounds" />
          </mxGeometry>
        </mxCell>
        <mxCell id="-bWdCGEcmyoKLp3c-T4H-158" value="12.05.2025" style="shape=partialRectangle;html=1;whiteSpace=wrap;connectable=0;fillColor=none;top=0;left=0;bottom=0;right=0;align=left;spacingLeft=6;overflow=hidden;strokeColor=inherit;fontSize=14;" parent="-bWdCGEcmyoKLp3c-T4H-156" vertex="1">
          <mxGeometry x="57" width="203" height="30" as="geometry">
            <mxRectangle width="203" height="30" as="alternateBounds" />
          </mxGeometry>
        </mxCell>
        <mxCell id="-bWdCGEcmyoKLp3c-T4H-159" value="" style="shape=tableRow;horizontal=0;startSize=0;swimlaneHead=0;swimlaneBody=0;top=0;left=0;bottom=0;right=0;collapsible=0;dropTarget=0;fillColor=none;points=[[0,0.5],[1,0.5]];portConstraint=eastwest;strokeColor=inherit;fontSize=16;" parent="-bWdCGEcmyoKLp3c-T4H-155" vertex="1">
          <mxGeometry y="60" width="260" height="30" as="geometry" />
        </mxCell>
        <mxCell id="-bWdCGEcmyoKLp3c-T4H-160" value="Thema" style="shape=partialRectangle;html=1;whiteSpace=wrap;connectable=0;fillColor=none;top=0;left=0;bottom=0;right=0;overflow=hidden;strokeColor=inherit;fontSize=14;" parent="-bWdCGEcmyoKLp3c-T4H-159" vertex="1">
          <mxGeometry width="57" height="30" as="geometry">
            <mxRectangle width="57" height="30" as="alternateBounds" />
          </mxGeometry>
        </mxCell>
        <mxCell id="-bWdCGEcmyoKLp3c-T4H-161" value="Klasse programmieren" style="shape=partialRectangle;html=1;whiteSpace=wrap;connectable=0;fillColor=none;top=0;left=0;bottom=0;right=0;align=left;spacingLeft=6;overflow=hidden;strokeColor=inherit;fontSize=14;" parent="-bWdCGEcmyoKLp3c-T4H-159" vertex="1">
          <mxGeometry x="57" width="203" height="30" as="geometry">
            <mxRectangle width="203" height="30" as="alternateBounds" />
          </mxGeometry>
        </mxCell>
        <mxCell id="-bWdCGEcmyoKLp3c-T4H-162" value="" style="shape=tableRow;horizontal=0;startSize=0;swimlaneHead=0;swimlaneBody=0;top=0;left=0;bottom=0;right=0;collapsible=0;dropTarget=0;fillColor=none;points=[[0,0.5],[1,0.5]];portConstraint=eastwest;strokeColor=inherit;fontSize=16;" parent="-bWdCGEcmyoKLp3c-T4H-155" vertex="1">
          <mxGeometry y="90" width="260" height="30" as="geometry" />
        </mxCell>
        <mxCell id="-bWdCGEcmyoKLp3c-T4H-163" value="Ende" style="shape=partialRectangle;html=1;whiteSpace=wrap;connectable=0;fillColor=none;top=0;left=0;bottom=0;right=0;overflow=hidden;strokeColor=inherit;fontSize=14;" parent="-bWdCGEcmyoKLp3c-T4H-162" vertex="1">
          <mxGeometry width="57" height="30" as="geometry">
            <mxRectangle width="57" height="30" as="alternateBounds" />
          </mxGeometry>
        </mxCell>
        <mxCell id="-bWdCGEcmyoKLp3c-T4H-164" value="16.05.2025" style="shape=partialRectangle;html=1;whiteSpace=wrap;connectable=0;fillColor=none;top=0;left=0;bottom=0;right=0;align=left;spacingLeft=6;overflow=hidden;strokeColor=inherit;fontSize=14;" parent="-bWdCGEcmyoKLp3c-T4H-162" vertex="1">
          <mxGeometry x="57" width="203" height="30" as="geometry">
            <mxRectangle width="203" height="30" as="alternateBounds" />
          </mxGeometry>
        </mxCell>
        <mxCell id="-bWdCGEcmyoKLp3c-T4H-165" value="Backend: Kampf-Klasse" style="shape=table;startSize=30;container=1;collapsible=0;childLayout=tableLayout;fixedRows=1;rowLines=0;fontStyle=0;strokeColor=#666666;fontSize=14;align=left;fillColor=#f5f5f5;fontColor=#333333;" parent="1" vertex="1">
          <mxGeometry x="810" y="-530" width="260" height="120" as="geometry" />
        </mxCell>
        <mxCell id="-bWdCGEcmyoKLp3c-T4H-166" value="" style="shape=tableRow;horizontal=0;startSize=0;swimlaneHead=0;swimlaneBody=0;top=0;left=0;bottom=0;right=0;collapsible=0;dropTarget=0;fillColor=none;points=[[0,0.5],[1,0.5]];portConstraint=eastwest;strokeColor=inherit;fontSize=16;" parent="-bWdCGEcmyoKLp3c-T4H-165" vertex="1">
          <mxGeometry y="30" width="260" height="30" as="geometry" />
        </mxCell>
        <mxCell id="-bWdCGEcmyoKLp3c-T4H-167" value="Start" style="shape=partialRectangle;html=1;whiteSpace=wrap;connectable=0;fillColor=none;top=0;left=0;bottom=0;right=0;overflow=hidden;pointerEvents=1;strokeColor=inherit;fontSize=14;" parent="-bWdCGEcmyoKLp3c-T4H-166" vertex="1">
          <mxGeometry width="57" height="30" as="geometry">
            <mxRectangle width="57" height="30" as="alternateBounds" />
          </mxGeometry>
        </mxCell>
        <mxCell id="-bWdCGEcmyoKLp3c-T4H-168" value="12.05.2025" style="shape=partialRectangle;html=1;whiteSpace=wrap;connectable=0;fillColor=none;top=0;left=0;bottom=0;right=0;align=left;spacingLeft=6;overflow=hidden;strokeColor=inherit;fontSize=14;" parent="-bWdCGEcmyoKLp3c-T4H-166" vertex="1">
          <mxGeometry x="57" width="203" height="30" as="geometry">
            <mxRectangle width="203" height="30" as="alternateBounds" />
          </mxGeometry>
        </mxCell>
        <mxCell id="-bWdCGEcmyoKLp3c-T4H-169" value="" style="shape=tableRow;horizontal=0;startSize=0;swimlaneHead=0;swimlaneBody=0;top=0;left=0;bottom=0;right=0;collapsible=0;dropTarget=0;fillColor=none;points=[[0,0.5],[1,0.5]];portConstraint=eastwest;strokeColor=inherit;fontSize=16;" parent="-bWdCGEcmyoKLp3c-T4H-165" vertex="1">
          <mxGeometry y="60" width="260" height="30" as="geometry" />
        </mxCell>
        <mxCell id="-bWdCGEcmyoKLp3c-T4H-170" value="Thema" style="shape=partialRectangle;html=1;whiteSpace=wrap;connectable=0;fillColor=none;top=0;left=0;bottom=0;right=0;overflow=hidden;strokeColor=inherit;fontSize=14;" parent="-bWdCGEcmyoKLp3c-T4H-169" vertex="1">
          <mxGeometry width="57" height="30" as="geometry">
            <mxRectangle width="57" height="30" as="alternateBounds" />
          </mxGeometry>
        </mxCell>
        <mxCell id="-bWdCGEcmyoKLp3c-T4H-171" value="Klasse programmieren" style="shape=partialRectangle;html=1;whiteSpace=wrap;connectable=0;fillColor=none;top=0;left=0;bottom=0;right=0;align=left;spacingLeft=6;overflow=hidden;strokeColor=inherit;fontSize=14;" parent="-bWdCGEcmyoKLp3c-T4H-169" vertex="1">
          <mxGeometry x="57" width="203" height="30" as="geometry">
            <mxRectangle width="203" height="30" as="alternateBounds" />
          </mxGeometry>
        </mxCell>
        <mxCell id="-bWdCGEcmyoKLp3c-T4H-172" value="" style="shape=tableRow;horizontal=0;startSize=0;swimlaneHead=0;swimlaneBody=0;top=0;left=0;bottom=0;right=0;collapsible=0;dropTarget=0;fillColor=none;points=[[0,0.5],[1,0.5]];portConstraint=eastwest;strokeColor=inherit;fontSize=16;" parent="-bWdCGEcmyoKLp3c-T4H-165" vertex="1">
          <mxGeometry y="90" width="260" height="30" as="geometry" />
        </mxCell>
        <mxCell id="-bWdCGEcmyoKLp3c-T4H-173" value="Ende" style="shape=partialRectangle;html=1;whiteSpace=wrap;connectable=0;fillColor=none;top=0;left=0;bottom=0;right=0;overflow=hidden;strokeColor=inherit;fontSize=14;" parent="-bWdCGEcmyoKLp3c-T4H-172" vertex="1">
          <mxGeometry width="57" height="30" as="geometry">
            <mxRectangle width="57" height="30" as="alternateBounds" />
          </mxGeometry>
        </mxCell>
        <mxCell id="-bWdCGEcmyoKLp3c-T4H-174" value="16.05.2025" style="shape=partialRectangle;html=1;whiteSpace=wrap;connectable=0;fillColor=none;top=0;left=0;bottom=0;right=0;align=left;spacingLeft=6;overflow=hidden;strokeColor=inherit;fontSize=14;" parent="-bWdCGEcmyoKLp3c-T4H-172" vertex="1">
          <mxGeometry x="57" width="203" height="30" as="geometry">
            <mxRectangle width="203" height="30" as="alternateBounds" />
          </mxGeometry>
        </mxCell>
        <mxCell id="-bWdCGEcmyoKLp3c-T4H-175" value="Datenbank: Anbindung" style="shape=table;startSize=30;container=1;collapsible=0;childLayout=tableLayout;fixedRows=1;rowLines=0;fontStyle=0;strokeColor=#666666;fontSize=14;align=left;fillColor=#f5f5f5;fontColor=#333333;" parent="1" vertex="1">
          <mxGeometry x="410" y="-390" width="260" height="120" as="geometry" />
        </mxCell>
        <mxCell id="-bWdCGEcmyoKLp3c-T4H-176" value="" style="shape=tableRow;horizontal=0;startSize=0;swimlaneHead=0;swimlaneBody=0;top=0;left=0;bottom=0;right=0;collapsible=0;dropTarget=0;fillColor=none;points=[[0,0.5],[1,0.5]];portConstraint=eastwest;strokeColor=inherit;fontSize=16;" parent="-bWdCGEcmyoKLp3c-T4H-175" vertex="1">
          <mxGeometry y="30" width="260" height="30" as="geometry" />
        </mxCell>
        <mxCell id="-bWdCGEcmyoKLp3c-T4H-177" value="Start" style="shape=partialRectangle;html=1;whiteSpace=wrap;connectable=0;fillColor=none;top=0;left=0;bottom=0;right=0;overflow=hidden;pointerEvents=1;strokeColor=inherit;fontSize=14;" parent="-bWdCGEcmyoKLp3c-T4H-176" vertex="1">
          <mxGeometry width="57" height="30" as="geometry">
            <mxRectangle width="57" height="30" as="alternateBounds" />
          </mxGeometry>
        </mxCell>
        <mxCell id="-bWdCGEcmyoKLp3c-T4H-178" value="12.05.2025" style="shape=partialRectangle;html=1;whiteSpace=wrap;connectable=0;fillColor=none;top=0;left=0;bottom=0;right=0;align=left;spacingLeft=6;overflow=hidden;strokeColor=inherit;fontSize=14;" parent="-bWdCGEcmyoKLp3c-T4H-176" vertex="1">
          <mxGeometry x="57" width="203" height="30" as="geometry">
            <mxRectangle width="203" height="30" as="alternateBounds" />
          </mxGeometry>
        </mxCell>
        <mxCell id="-bWdCGEcmyoKLp3c-T4H-179" value="" style="shape=tableRow;horizontal=0;startSize=0;swimlaneHead=0;swimlaneBody=0;top=0;left=0;bottom=0;right=0;collapsible=0;dropTarget=0;fillColor=none;points=[[0,0.5],[1,0.5]];portConstraint=eastwest;strokeColor=inherit;fontSize=16;" parent="-bWdCGEcmyoKLp3c-T4H-175" vertex="1">
          <mxGeometry y="60" width="260" height="30" as="geometry" />
        </mxCell>
        <mxCell id="-bWdCGEcmyoKLp3c-T4H-180" value="Thema" style="shape=partialRectangle;html=1;whiteSpace=wrap;connectable=0;fillColor=none;top=0;left=0;bottom=0;right=0;overflow=hidden;strokeColor=inherit;fontSize=14;" parent="-bWdCGEcmyoKLp3c-T4H-179" vertex="1">
          <mxGeometry width="57" height="30" as="geometry">
            <mxRectangle width="57" height="30" as="alternateBounds" />
          </mxGeometry>
        </mxCell>
        <mxCell id="-bWdCGEcmyoKLp3c-T4H-181" value="Datenbank aufsetzen" style="shape=partialRectangle;html=1;whiteSpace=wrap;connectable=0;fillColor=none;top=0;left=0;bottom=0;right=0;align=left;spacingLeft=6;overflow=hidden;strokeColor=inherit;fontSize=14;" parent="-bWdCGEcmyoKLp3c-T4H-179" vertex="1">
          <mxGeometry x="57" width="203" height="30" as="geometry">
            <mxRectangle width="203" height="30" as="alternateBounds" />
          </mxGeometry>
        </mxCell>
        <mxCell id="-bWdCGEcmyoKLp3c-T4H-182" value="" style="shape=tableRow;horizontal=0;startSize=0;swimlaneHead=0;swimlaneBody=0;top=0;left=0;bottom=0;right=0;collapsible=0;dropTarget=0;fillColor=none;points=[[0,0.5],[1,0.5]];portConstraint=eastwest;strokeColor=inherit;fontSize=16;" parent="-bWdCGEcmyoKLp3c-T4H-175" vertex="1">
          <mxGeometry y="90" width="260" height="30" as="geometry" />
        </mxCell>
        <mxCell id="-bWdCGEcmyoKLp3c-T4H-183" value="Ende" style="shape=partialRectangle;html=1;whiteSpace=wrap;connectable=0;fillColor=none;top=0;left=0;bottom=0;right=0;overflow=hidden;strokeColor=inherit;fontSize=14;" parent="-bWdCGEcmyoKLp3c-T4H-182" vertex="1">
          <mxGeometry width="57" height="30" as="geometry">
            <mxRectangle width="57" height="30" as="alternateBounds" />
          </mxGeometry>
        </mxCell>
        <mxCell id="-bWdCGEcmyoKLp3c-T4H-184" value="22.05.2025" style="shape=partialRectangle;html=1;whiteSpace=wrap;connectable=0;fillColor=none;top=0;left=0;bottom=0;right=0;align=left;spacingLeft=6;overflow=hidden;strokeColor=inherit;fontSize=14;" parent="-bWdCGEcmyoKLp3c-T4H-182" vertex="1">
          <mxGeometry x="57" width="203" height="30" as="geometry">
            <mxRectangle width="203" height="30" as="alternateBounds" />
          </mxGeometry>
        </mxCell>
        <mxCell id="-bWdCGEcmyoKLp3c-T4H-185" value="Datenbank: Vordefinierung Tiere" style="shape=table;startSize=30;container=1;collapsible=0;childLayout=tableLayout;fixedRows=1;rowLines=0;fontStyle=0;strokeColor=#666666;fontSize=14;align=left;fillColor=#f5f5f5;fontColor=#333333;" parent="1" vertex="1">
          <mxGeometry x="410" y="-250" width="260" height="120" as="geometry" />
        </mxCell>
        <mxCell id="-bWdCGEcmyoKLp3c-T4H-186" value="" style="shape=tableRow;horizontal=0;startSize=0;swimlaneHead=0;swimlaneBody=0;top=0;left=0;bottom=0;right=0;collapsible=0;dropTarget=0;fillColor=none;points=[[0,0.5],[1,0.5]];portConstraint=eastwest;strokeColor=inherit;fontSize=16;" parent="-bWdCGEcmyoKLp3c-T4H-185" vertex="1">
          <mxGeometry y="30" width="260" height="30" as="geometry" />
        </mxCell>
        <mxCell id="-bWdCGEcmyoKLp3c-T4H-187" value="Start" style="shape=partialRectangle;html=1;whiteSpace=wrap;connectable=0;fillColor=none;top=0;left=0;bottom=0;right=0;overflow=hidden;pointerEvents=1;strokeColor=inherit;fontSize=14;" parent="-bWdCGEcmyoKLp3c-T4H-186" vertex="1">
          <mxGeometry width="57" height="30" as="geometry">
            <mxRectangle width="57" height="30" as="alternateBounds" />
          </mxGeometry>
        </mxCell>
        <mxCell id="-bWdCGEcmyoKLp3c-T4H-188" value="22.04.2025" style="shape=partialRectangle;html=1;whiteSpace=wrap;connectable=0;fillColor=none;top=0;left=0;bottom=0;right=0;align=left;spacingLeft=6;overflow=hidden;strokeColor=inherit;fontSize=14;" parent="-bWdCGEcmyoKLp3c-T4H-186" vertex="1">
          <mxGeometry x="57" width="203" height="30" as="geometry">
            <mxRectangle width="203" height="30" as="alternateBounds" />
          </mxGeometry>
        </mxCell>
        <mxCell id="-bWdCGEcmyoKLp3c-T4H-189" value="" style="shape=tableRow;horizontal=0;startSize=0;swimlaneHead=0;swimlaneBody=0;top=0;left=0;bottom=0;right=0;collapsible=0;dropTarget=0;fillColor=none;points=[[0,0.5],[1,0.5]];portConstraint=eastwest;strokeColor=inherit;fontSize=16;" parent="-bWdCGEcmyoKLp3c-T4H-185" vertex="1">
          <mxGeometry y="60" width="260" height="30" as="geometry" />
        </mxCell>
        <mxCell id="-bWdCGEcmyoKLp3c-T4H-190" value="Thema" style="shape=partialRectangle;html=1;whiteSpace=wrap;connectable=0;fillColor=none;top=0;left=0;bottom=0;right=0;overflow=hidden;strokeColor=inherit;fontSize=14;" parent="-bWdCGEcmyoKLp3c-T4H-189" vertex="1">
          <mxGeometry width="57" height="30" as="geometry">
            <mxRectangle width="57" height="30" as="alternateBounds" />
          </mxGeometry>
        </mxCell>
        <mxCell id="-bWdCGEcmyoKLp3c-T4H-191" value="Tiere in Datenbank speichern" style="shape=partialRectangle;html=1;whiteSpace=wrap;connectable=0;fillColor=none;top=0;left=0;bottom=0;right=0;align=left;spacingLeft=6;overflow=hidden;strokeColor=inherit;fontSize=14;" parent="-bWdCGEcmyoKLp3c-T4H-189" vertex="1">
          <mxGeometry x="57" width="203" height="30" as="geometry">
            <mxRectangle width="203" height="30" as="alternateBounds" />
          </mxGeometry>
        </mxCell>
        <mxCell id="-bWdCGEcmyoKLp3c-T4H-192" value="" style="shape=tableRow;horizontal=0;startSize=0;swimlaneHead=0;swimlaneBody=0;top=0;left=0;bottom=0;right=0;collapsible=0;dropTarget=0;fillColor=none;points=[[0,0.5],[1,0.5]];portConstraint=eastwest;strokeColor=inherit;fontSize=16;" parent="-bWdCGEcmyoKLp3c-T4H-185" vertex="1">
          <mxGeometry y="90" width="260" height="30" as="geometry" />
        </mxCell>
        <mxCell id="-bWdCGEcmyoKLp3c-T4H-193" value="Ende" style="shape=partialRectangle;html=1;whiteSpace=wrap;connectable=0;fillColor=none;top=0;left=0;bottom=0;right=0;overflow=hidden;strokeColor=inherit;fontSize=14;" parent="-bWdCGEcmyoKLp3c-T4H-192" vertex="1">
          <mxGeometry width="57" height="30" as="geometry">
            <mxRectangle width="57" height="30" as="alternateBounds" />
          </mxGeometry>
        </mxCell>
        <mxCell id="-bWdCGEcmyoKLp3c-T4H-194" value="22.05.2025" style="shape=partialRectangle;html=1;whiteSpace=wrap;connectable=0;fillColor=none;top=0;left=0;bottom=0;right=0;align=left;spacingLeft=6;overflow=hidden;strokeColor=inherit;fontSize=14;" parent="-bWdCGEcmyoKLp3c-T4H-192" vertex="1">
          <mxGeometry x="57" width="203" height="30" as="geometry">
            <mxRectangle width="203" height="30" as="alternateBounds" />
          </mxGeometry>
        </mxCell>
        <mxCell id="-bWdCGEcmyoKLp3c-T4H-200" value="Klasse definieren" style="shape=display;whiteSpace=wrap;html=1;align=right;spacing=8;fillColor=#f5f5f5;strokeColor=#666666;fontColor=#333333;" parent="1" vertex="1">
          <mxGeometry x="1070" y="-750" width="120" height="30" as="geometry" />
        </mxCell>
        <mxCell id="-bWdCGEcmyoKLp3c-T4H-201" value="Datenzugriffe definieren" style="shape=display;whiteSpace=wrap;html=1;align=right;spacing=8;fillColor=#f5f5f5;strokeColor=#666666;fontColor=#333333;" parent="1" vertex="1">
          <mxGeometry x="1190" y="-750" width="120" height="30" as="geometry" />
        </mxCell>
        <mxCell id="-bWdCGEcmyoKLp3c-T4H-283" style="edgeStyle=orthogonalEdgeStyle;rounded=0;orthogonalLoop=1;jettySize=auto;html=1;exitX=1;exitY=0.5;exitDx=0;exitDy=0;exitPerimeter=0;entryX=0;entryY=0.5;entryDx=0;entryDy=0;endArrow=none;startFill=0;" parent="1" source="-bWdCGEcmyoKLp3c-T4H-203" target="-bWdCGEcmyoKLp3c-T4H-233" edge="1">
          <mxGeometry relative="1" as="geometry" />
        </mxCell>
        <mxCell id="-bWdCGEcmyoKLp3c-T4H-203" value="Datenspeicherung definieren" style="shape=display;whiteSpace=wrap;html=1;align=right;spacing=8;fillColor=#f5f5f5;strokeColor=#666666;fontColor=#333333;" parent="1" vertex="1">
          <mxGeometry x="1310" y="-750" width="140" height="30" as="geometry" />
        </mxCell>
        <mxCell id="-bWdCGEcmyoKLp3c-T4H-204" value="Klasse definieren" style="shape=display;whiteSpace=wrap;html=1;align=right;spacing=8;fillColor=#f5f5f5;strokeColor=#666666;fontColor=#333333;" parent="1" vertex="1">
          <mxGeometry x="1070" y="-610" width="120" height="30" as="geometry" />
        </mxCell>
        <mxCell id="-bWdCGEcmyoKLp3c-T4H-205" value="Klasse definieren" style="shape=display;whiteSpace=wrap;html=1;align=right;spacing=8;fillColor=#f5f5f5;strokeColor=#666666;fontColor=#333333;" parent="1" vertex="1">
          <mxGeometry x="1070" y="-470" width="120" height="30" as="geometry" />
        </mxCell>
        <mxCell id="-bWdCGEcmyoKLp3c-T4H-206" value="Datenzugriffe definieren" style="shape=display;whiteSpace=wrap;html=1;align=right;spacing=8;fillColor=#f5f5f5;strokeColor=#666666;fontColor=#333333;" parent="1" vertex="1">
          <mxGeometry x="1190" y="-610" width="120" height="30" as="geometry" />
        </mxCell>
        <mxCell id="-bWdCGEcmyoKLp3c-T4H-284" style="edgeStyle=orthogonalEdgeStyle;rounded=0;orthogonalLoop=1;jettySize=auto;html=1;exitX=1;exitY=0.5;exitDx=0;exitDy=0;exitPerimeter=0;entryX=0;entryY=0.5;entryDx=0;entryDy=0;endArrow=none;startFill=0;" parent="1" source="-bWdCGEcmyoKLp3c-T4H-207" target="-bWdCGEcmyoKLp3c-T4H-233" edge="1">
          <mxGeometry relative="1" as="geometry" />
        </mxCell>
        <mxCell id="-bWdCGEcmyoKLp3c-T4H-207" value="Datenspeicherung definieren" style="shape=display;whiteSpace=wrap;html=1;align=right;spacing=8;fillColor=#f5f5f5;strokeColor=#666666;fontColor=#333333;" parent="1" vertex="1">
          <mxGeometry x="1310" y="-610" width="140" height="30" as="geometry" />
        </mxCell>
        <mxCell id="-bWdCGEcmyoKLp3c-T4H-208" value="Datenzugriffe definieren" style="shape=display;whiteSpace=wrap;html=1;align=right;spacing=8;fillColor=#f5f5f5;strokeColor=#666666;fontColor=#333333;" parent="1" vertex="1">
          <mxGeometry x="1190" y="-470" width="120" height="30" as="geometry" />
        </mxCell>
        <mxCell id="-bWdCGEcmyoKLp3c-T4H-285" style="edgeStyle=orthogonalEdgeStyle;rounded=0;orthogonalLoop=1;jettySize=auto;html=1;exitX=1;exitY=0.5;exitDx=0;exitDy=0;exitPerimeter=0;entryX=0;entryY=0.5;entryDx=0;entryDy=0;endArrow=none;startFill=0;" parent="1" source="-bWdCGEcmyoKLp3c-T4H-209" target="-bWdCGEcmyoKLp3c-T4H-233" edge="1">
          <mxGeometry relative="1" as="geometry" />
        </mxCell>
        <mxCell id="-bWdCGEcmyoKLp3c-T4H-209" value="Datenspeicherung definieren" style="shape=display;whiteSpace=wrap;html=1;align=right;spacing=8;fillColor=#f5f5f5;strokeColor=#666666;fontColor=#333333;" parent="1" vertex="1">
          <mxGeometry x="1310" y="-470" width="140" height="30" as="geometry" />
        </mxCell>
        <mxCell id="-bWdCGEcmyoKLp3c-T4H-210" value="Datenbank erstellen" style="shape=display;whiteSpace=wrap;html=1;align=right;spacing=8;fillColor=#f5f5f5;strokeColor=#666666;fontColor=#333333;" parent="1" vertex="1">
          <mxGeometry x="670" y="-330" width="120" height="30" as="geometry" />
        </mxCell>
        <mxCell id="-bWdCGEcmyoKLp3c-T4H-211" value="Datenbank an&lt;div&gt;Projekt anbinden&lt;/div&gt;" style="shape=display;whiteSpace=wrap;html=1;align=right;spacing=8;fillColor=#f5f5f5;strokeColor=#666666;fontColor=#333333;" parent="1" vertex="1">
          <mxGeometry x="790" y="-330" width="140" height="30" as="geometry" />
        </mxCell>
        <mxCell id="-bWdCGEcmyoKLp3c-T4H-212" value="Basistiere erstellen" style="shape=display;whiteSpace=wrap;html=1;align=right;spacing=8;fillColor=#f5f5f5;strokeColor=#666666;fontColor=#333333;" parent="1" vertex="1">
          <mxGeometry x="670" y="-190" width="140" height="30" as="geometry" />
        </mxCell>
        <mxCell id="-bWdCGEcmyoKLp3c-T4H-318" style="edgeStyle=orthogonalEdgeStyle;rounded=0;orthogonalLoop=1;jettySize=auto;html=1;exitX=1;exitY=0.5;exitDx=0;exitDy=0;exitPerimeter=0;entryX=0;entryY=0.5;entryDx=0;entryDy=0;endArrow=none;startFill=0;" parent="1" source="-bWdCGEcmyoKLp3c-T4H-213" target="-bWdCGEcmyoKLp3c-T4H-237" edge="1">
          <mxGeometry relative="1" as="geometry">
            <Array as="points">
              <mxPoint x="1110" y="-265" />
              <mxPoint x="1110" y="-265" />
            </Array>
          </mxGeometry>
        </mxCell>
        <mxCell id="-bWdCGEcmyoKLp3c-T4H-213" value="Tiere in D&lt;span style=&quot;background-color: transparent; color: light-dark(rgb(0, 0, 0), rgb(255, 255, 255));&quot;&gt;atenbank speichern&lt;/span&gt;" style="shape=display;whiteSpace=wrap;html=1;align=right;spacing=8;fillColor=#f5f5f5;strokeColor=#666666;fontColor=#333333;" parent="1" vertex="1">
          <mxGeometry x="930" y="-280" width="160" height="30" as="geometry" />
        </mxCell>
        <mxCell id="-bWdCGEcmyoKLp3c-T4H-214" value="Zusatz: FÃ¤higkeiten-Klasse" style="shape=table;startSize=30;container=1;collapsible=0;childLayout=tableLayout;fixedRows=1;rowLines=0;fontStyle=0;fontSize=14;align=left;fillColor=#f5f5f5;strokeColor=#666666;fontColor=#333333;" parent="1" vertex="1">
          <mxGeometry x="810" y="-950" width="260" height="120" as="geometry" />
        </mxCell>
        <mxCell id="-bWdCGEcmyoKLp3c-T4H-215" value="" style="shape=tableRow;horizontal=0;startSize=0;swimlaneHead=0;swimlaneBody=0;top=0;left=0;bottom=0;right=0;collapsible=0;dropTarget=0;fillColor=none;points=[[0,0.5],[1,0.5]];portConstraint=eastwest;strokeColor=inherit;fontSize=16;" parent="-bWdCGEcmyoKLp3c-T4H-214" vertex="1">
          <mxGeometry y="30" width="260" height="30" as="geometry" />
        </mxCell>
        <mxCell id="-bWdCGEcmyoKLp3c-T4H-216" value="Start" style="shape=partialRectangle;html=1;whiteSpace=wrap;connectable=0;fillColor=none;top=0;left=0;bottom=0;right=0;overflow=hidden;pointerEvents=1;strokeColor=inherit;fontSize=14;" parent="-bWdCGEcmyoKLp3c-T4H-215" vertex="1">
          <mxGeometry width="57" height="30" as="geometry">
            <mxRectangle width="57" height="30" as="alternateBounds" />
          </mxGeometry>
        </mxCell>
        <mxCell id="-bWdCGEcmyoKLp3c-T4H-217" value="undefiniert" style="shape=partialRectangle;html=1;whiteSpace=wrap;connectable=0;fillColor=none;top=0;left=0;bottom=0;right=0;align=left;spacingLeft=6;overflow=hidden;strokeColor=inherit;fontSize=14;" parent="-bWdCGEcmyoKLp3c-T4H-215" vertex="1">
          <mxGeometry x="57" width="203" height="30" as="geometry">
            <mxRectangle width="203" height="30" as="alternateBounds" />
          </mxGeometry>
        </mxCell>
        <mxCell id="-bWdCGEcmyoKLp3c-T4H-218" value="" style="shape=tableRow;horizontal=0;startSize=0;swimlaneHead=0;swimlaneBody=0;top=0;left=0;bottom=0;right=0;collapsible=0;dropTarget=0;fillColor=none;points=[[0,0.5],[1,0.5]];portConstraint=eastwest;strokeColor=inherit;fontSize=16;" parent="-bWdCGEcmyoKLp3c-T4H-214" vertex="1">
          <mxGeometry y="60" width="260" height="30" as="geometry" />
        </mxCell>
        <mxCell id="-bWdCGEcmyoKLp3c-T4H-219" value="Thema" style="shape=partialRectangle;html=1;whiteSpace=wrap;connectable=0;fillColor=none;top=0;left=0;bottom=0;right=0;overflow=hidden;strokeColor=inherit;fontSize=14;" parent="-bWdCGEcmyoKLp3c-T4H-218" vertex="1">
          <mxGeometry width="57" height="30" as="geometry">
            <mxRectangle width="57" height="30" as="alternateBounds" />
          </mxGeometry>
        </mxCell>
        <mxCell id="-bWdCGEcmyoKLp3c-T4H-220" value="Klasse programmieren" style="shape=partialRectangle;html=1;whiteSpace=wrap;connectable=0;fillColor=none;top=0;left=0;bottom=0;right=0;align=left;spacingLeft=6;overflow=hidden;strokeColor=inherit;fontSize=14;" parent="-bWdCGEcmyoKLp3c-T4H-218" vertex="1">
          <mxGeometry x="57" width="203" height="30" as="geometry">
            <mxRectangle width="203" height="30" as="alternateBounds" />
          </mxGeometry>
        </mxCell>
        <mxCell id="-bWdCGEcmyoKLp3c-T4H-221" value="" style="shape=tableRow;horizontal=0;startSize=0;swimlaneHead=0;swimlaneBody=0;top=0;left=0;bottom=0;right=0;collapsible=0;dropTarget=0;fillColor=none;points=[[0,0.5],[1,0.5]];portConstraint=eastwest;strokeColor=inherit;fontSize=16;" parent="-bWdCGEcmyoKLp3c-T4H-214" vertex="1">
          <mxGeometry y="90" width="260" height="30" as="geometry" />
        </mxCell>
        <mxCell id="-bWdCGEcmyoKLp3c-T4H-222" value="Ende" style="shape=partialRectangle;html=1;whiteSpace=wrap;connectable=0;fillColor=none;top=0;left=0;bottom=0;right=0;overflow=hidden;strokeColor=inherit;fontSize=14;" parent="-bWdCGEcmyoKLp3c-T4H-221" vertex="1">
          <mxGeometry width="57" height="30" as="geometry">
            <mxRectangle width="57" height="30" as="alternateBounds" />
          </mxGeometry>
        </mxCell>
        <mxCell id="-bWdCGEcmyoKLp3c-T4H-223" value="undefiniert" style="shape=partialRectangle;html=1;whiteSpace=wrap;connectable=0;fillColor=none;top=0;left=0;bottom=0;right=0;align=left;spacingLeft=6;overflow=hidden;strokeColor=inherit;fontSize=14;" parent="-bWdCGEcmyoKLp3c-T4H-221" vertex="1">
          <mxGeometry x="57" width="203" height="30" as="geometry">
            <mxRectangle width="203" height="30" as="alternateBounds" />
          </mxGeometry>
        </mxCell>
        <mxCell id="-bWdCGEcmyoKLp3c-T4H-129" value="" style="group" parent="1" vertex="1" connectable="0">
          <mxGeometry x="70" y="-540" width="260" height="170" as="geometry" />
        </mxCell>
        <mxCell id="-bWdCGEcmyoKLp3c-T4H-1" value="Projekt Visionierung&lt;div&gt;ZusammenfÃ¼gen der Bausteine&lt;br&gt;&lt;/div&gt;" style="shape=hexagon;perimeter=hexagonPerimeter2;whiteSpace=wrap;html=1;fixedSize=1;fillColor=#a20025;strokeColor=#6F0000;fontSize=14;fontColor=#ffffff;" parent="-bWdCGEcmyoKLp3c-T4H-129" vertex="1">
          <mxGeometry x="10" y="70" width="240" height="90" as="geometry" />
        </mxCell>
        <mxCell id="-bWdCGEcmyoKLp3c-T4H-127" value="" style="swimlane;startSize=0;gradientColor=default;fillColor=#FFFFFF;" parent="-bWdCGEcmyoKLp3c-T4H-129" vertex="1">
          <mxGeometry width="260" height="170" as="geometry" />
        </mxCell>
        <mxCell id="-bWdCGEcmyoKLp3c-T4H-128" value="1. Deadline: 08.05.2025&lt;br&gt;Termin: 09.05.2025" style="rounded=0;whiteSpace=wrap;html=1;fontSize=16;fillColor=#a20025;fontColor=#ffffff;strokeColor=#6F0000;" parent="-bWdCGEcmyoKLp3c-T4H-127" vertex="1">
          <mxGeometry width="260" height="60" as="geometry" />
        </mxCell>
        <mxCell id="-bWdCGEcmyoKLp3c-T4H-130" value="" style="group" parent="1" vertex="1" connectable="0">
          <mxGeometry x="250" y="-760" width="260" height="170" as="geometry" />
        </mxCell>
        <mxCell id="-bWdCGEcmyoKLp3c-T4H-131" value="Skills aneignen:&lt;br&gt;Datenbanken&lt;br&gt;(Frontend)" style="shape=hexagon;perimeter=hexagonPerimeter2;whiteSpace=wrap;html=1;fixedSize=1;fillColor=#a20025;strokeColor=#6F0000;fontSize=14;fontColor=#ffffff;" parent="-bWdCGEcmyoKLp3c-T4H-130" vertex="1">
          <mxGeometry x="10" y="70" width="240" height="90" as="geometry" />
        </mxCell>
        <mxCell id="-bWdCGEcmyoKLp3c-T4H-132" value="" style="swimlane;startSize=0;gradientColor=default;fillColor=#FFFFFF;" parent="-bWdCGEcmyoKLp3c-T4H-130" vertex="1">
          <mxGeometry width="260" height="170" as="geometry" />
        </mxCell>
        <mxCell id="-bWdCGEcmyoKLp3c-T4H-133" value="Termin: TBA" style="rounded=0;whiteSpace=wrap;html=1;fontSize=16;fillColor=#a20025;fontColor=#ffffff;strokeColor=#6F0000;" parent="-bWdCGEcmyoKLp3c-T4H-132" vertex="1">
          <mxGeometry width="260" height="60" as="geometry" />
        </mxCell>
        <mxCell id="-bWdCGEcmyoKLp3c-T4H-225" style="edgeStyle=orthogonalEdgeStyle;rounded=0;orthogonalLoop=1;jettySize=auto;html=1;exitX=0.5;exitY=0;exitDx=0;exitDy=0;entryX=0;entryY=0.5;entryDx=0;entryDy=0;endArrow=none;startFill=0;" parent="1" source="-bWdCGEcmyoKLp3c-T4H-128" target="-bWdCGEcmyoKLp3c-T4H-132" edge="1">
          <mxGeometry relative="1" as="geometry" />
        </mxCell>
        <mxCell id="-bWdCGEcmyoKLp3c-T4H-226" value="Klasse definieren" style="shape=display;whiteSpace=wrap;html=1;align=right;spacing=8;fillColor=#f5f5f5;strokeColor=#666666;fontColor=#333333;" parent="1" vertex="1">
          <mxGeometry x="1070" y="-890" width="120" height="30" as="geometry" />
        </mxCell>
        <mxCell id="-bWdCGEcmyoKLp3c-T4H-227" value="Datenzugriffe definieren" style="shape=display;whiteSpace=wrap;html=1;align=right;spacing=8;fillColor=#f5f5f5;strokeColor=#666666;fontColor=#333333;" parent="1" vertex="1">
          <mxGeometry x="1190" y="-890" width="120" height="30" as="geometry" />
        </mxCell>
        <mxCell id="-bWdCGEcmyoKLp3c-T4H-281" style="edgeStyle=orthogonalEdgeStyle;rounded=0;orthogonalLoop=1;jettySize=auto;html=1;exitX=1;exitY=0.5;exitDx=0;exitDy=0;exitPerimeter=0;entryX=0;entryY=0.5;entryDx=0;entryDy=0;endArrow=none;startFill=0;" parent="1" source="-bWdCGEcmyoKLp3c-T4H-228" target="-bWdCGEcmyoKLp3c-T4H-233" edge="1">
          <mxGeometry relative="1" as="geometry" />
        </mxCell>
        <mxCell id="-bWdCGEcmyoKLp3c-T4H-228" value="Datenspeicherung definieren" style="shape=display;whiteSpace=wrap;html=1;align=right;spacing=8;fillColor=#f5f5f5;strokeColor=#666666;fontColor=#333333;" parent="1" vertex="1">
          <mxGeometry x="1310" y="-890" width="140" height="30" as="geometry" />
        </mxCell>
        <mxCell id="-bWdCGEcmyoKLp3c-T4H-231" value="" style="group" parent="1" vertex="1" connectable="0">
          <mxGeometry x="1490" y="-750" width="260" height="170" as="geometry" />
        </mxCell>
        <mxCell id="-bWdCGEcmyoKLp3c-T4H-483" value="" style="group" parent="-bWdCGEcmyoKLp3c-T4H-231" vertex="1" connectable="0">
          <mxGeometry width="260" height="170" as="geometry" />
        </mxCell>
        <mxCell id="-bWdCGEcmyoKLp3c-T4H-232" value="&lt;div&gt;ZusammenfÃ¼hren aller Klassen&lt;/div&gt;&lt;div&gt;FunktionalitÃ¤ten testen&lt;/div&gt;&lt;div&gt;Backend-Datenaustausch testen&lt;/div&gt;" style="shape=hexagon;perimeter=hexagonPerimeter2;whiteSpace=wrap;html=1;fixedSize=1;fillColor=#a20025;strokeColor=#6F0000;fontSize=14;fontColor=#ffffff;" parent="-bWdCGEcmyoKLp3c-T4H-483" vertex="1">
          <mxGeometry x="10" y="70" width="240" height="90" as="geometry" />
        </mxCell>
        <mxCell id="-bWdCGEcmyoKLp3c-T4H-233" value="" style="swimlane;startSize=0;gradientColor=default;fillColor=#FFFFFF;" parent="-bWdCGEcmyoKLp3c-T4H-483" vertex="1">
          <mxGeometry width="260" height="170" as="geometry" />
        </mxCell>
        <mxCell id="-bWdCGEcmyoKLp3c-T4H-234" value="2. Deadline: 16.05.2025&lt;br&gt;Termin: 21.05.2025" style="rounded=0;whiteSpace=wrap;html=1;fontSize=16;fillColor=#a20025;fontColor=#ffffff;strokeColor=#6F0000;" parent="-bWdCGEcmyoKLp3c-T4H-233" vertex="1">
          <mxGeometry width="260" height="60" as="geometry" />
        </mxCell>
        <mxCell id="-bWdCGEcmyoKLp3c-T4H-239" value="P H A S E&amp;nbsp; &amp;nbsp;4 :&amp;nbsp; &amp;nbsp;D A T E N B A N K&amp;nbsp; &amp;nbsp;A N B I N D E N" style="html=1;shadow=0;dashed=0;align=center;verticalAlign=middle;shape=mxgraph.arrows2.arrow;dy=0;dx=30;notch=30;fontSize=16;fontStyle=1;fillColor=#f9f7ed;strokeColor=#36393d;" parent="1" vertex="1">
          <mxGeometry x="1590" y="-110" width="450" height="40" as="geometry" />
        </mxCell>
        <mxCell id="-bWdCGEcmyoKLp3c-T4H-287" style="edgeStyle=orthogonalEdgeStyle;rounded=0;orthogonalLoop=1;jettySize=auto;html=1;entryX=0.5;entryY=0;entryDx=0;entryDy=0;endArrow=none;startFill=0;" parent="1" source="-bWdCGEcmyoKLp3c-T4H-240" target="-bWdCGEcmyoKLp3c-T4H-238" edge="1">
          <mxGeometry relative="1" as="geometry" />
        </mxCell>
        <mxCell id="-bWdCGEcmyoKLp3c-T4H-240" value="Backend: Korrekturen (alle)" style="shape=table;startSize=30;container=1;collapsible=0;childLayout=tableLayout;fixedRows=1;rowLines=0;fontStyle=0;fontSize=14;align=left;fillColor=#f8cecc;strokeColor=#b85450;" parent="1" vertex="1">
          <mxGeometry x="1490" y="-520" width="260" height="120" as="geometry" />
        </mxCell>
        <mxCell id="-bWdCGEcmyoKLp3c-T4H-241" value="" style="shape=tableRow;horizontal=0;startSize=0;swimlaneHead=0;swimlaneBody=0;top=0;left=0;bottom=0;right=0;collapsible=0;dropTarget=0;fillColor=none;points=[[0,0.5],[1,0.5]];portConstraint=eastwest;strokeColor=inherit;fontSize=16;" parent="-bWdCGEcmyoKLp3c-T4H-240" vertex="1">
          <mxGeometry y="30" width="260" height="30" as="geometry" />
        </mxCell>
        <mxCell id="-bWdCGEcmyoKLp3c-T4H-242" value="Start" style="shape=partialRectangle;html=1;whiteSpace=wrap;connectable=0;fillColor=none;top=0;left=0;bottom=0;right=0;overflow=hidden;pointerEvents=1;strokeColor=inherit;fontSize=14;" parent="-bWdCGEcmyoKLp3c-T4H-241" vertex="1">
          <mxGeometry width="57" height="30" as="geometry">
            <mxRectangle width="57" height="30" as="alternateBounds" />
          </mxGeometry>
        </mxCell>
        <mxCell id="-bWdCGEcmyoKLp3c-T4H-243" value="21.05.2025" style="shape=partialRectangle;html=1;whiteSpace=wrap;connectable=0;fillColor=none;top=0;left=0;bottom=0;right=0;align=left;spacingLeft=6;overflow=hidden;strokeColor=inherit;fontSize=14;" parent="-bWdCGEcmyoKLp3c-T4H-241" vertex="1">
          <mxGeometry x="57" width="203" height="30" as="geometry">
            <mxRectangle width="203" height="30" as="alternateBounds" />
          </mxGeometry>
        </mxCell>
        <mxCell id="-bWdCGEcmyoKLp3c-T4H-244" value="" style="shape=tableRow;horizontal=0;startSize=0;swimlaneHead=0;swimlaneBody=0;top=0;left=0;bottom=0;right=0;collapsible=0;dropTarget=0;fillColor=none;points=[[0,0.5],[1,0.5]];portConstraint=eastwest;strokeColor=inherit;fontSize=16;" parent="-bWdCGEcmyoKLp3c-T4H-240" vertex="1">
          <mxGeometry y="60" width="260" height="30" as="geometry" />
        </mxCell>
        <mxCell id="-bWdCGEcmyoKLp3c-T4H-245" value="Thema" style="shape=partialRectangle;html=1;whiteSpace=wrap;connectable=0;fillColor=none;top=0;left=0;bottom=0;right=0;overflow=hidden;strokeColor=inherit;fontSize=14;" parent="-bWdCGEcmyoKLp3c-T4H-244" vertex="1">
          <mxGeometry width="57" height="30" as="geometry">
            <mxRectangle width="57" height="30" as="alternateBounds" />
          </mxGeometry>
        </mxCell>
        <mxCell id="-bWdCGEcmyoKLp3c-T4H-246" value="Bug-Fixing" style="shape=partialRectangle;html=1;whiteSpace=wrap;connectable=0;fillColor=none;top=0;left=0;bottom=0;right=0;align=left;spacingLeft=6;overflow=hidden;strokeColor=inherit;fontSize=14;" parent="-bWdCGEcmyoKLp3c-T4H-244" vertex="1">
          <mxGeometry x="57" width="203" height="30" as="geometry">
            <mxRectangle width="203" height="30" as="alternateBounds" />
          </mxGeometry>
        </mxCell>
        <mxCell id="-bWdCGEcmyoKLp3c-T4H-247" value="" style="shape=tableRow;horizontal=0;startSize=0;swimlaneHead=0;swimlaneBody=0;top=0;left=0;bottom=0;right=0;collapsible=0;dropTarget=0;fillColor=none;points=[[0,0.5],[1,0.5]];portConstraint=eastwest;strokeColor=inherit;fontSize=16;" parent="-bWdCGEcmyoKLp3c-T4H-240" vertex="1">
          <mxGeometry y="90" width="260" height="30" as="geometry" />
        </mxCell>
        <mxCell id="-bWdCGEcmyoKLp3c-T4H-248" value="Ende" style="shape=partialRectangle;html=1;whiteSpace=wrap;connectable=0;fillColor=none;top=0;left=0;bottom=0;right=0;overflow=hidden;strokeColor=inherit;fontSize=14;" parent="-bWdCGEcmyoKLp3c-T4H-247" vertex="1">
          <mxGeometry width="57" height="30" as="geometry">
            <mxRectangle width="57" height="30" as="alternateBounds" />
          </mxGeometry>
        </mxCell>
        <mxCell id="-bWdCGEcmyoKLp3c-T4H-249" value="22.05.2025" style="shape=partialRectangle;html=1;whiteSpace=wrap;connectable=0;fillColor=none;top=0;left=0;bottom=0;right=0;align=left;spacingLeft=6;overflow=hidden;strokeColor=inherit;fontSize=14;" parent="-bWdCGEcmyoKLp3c-T4H-247" vertex="1">
          <mxGeometry x="57" width="203" height="30" as="geometry">
            <mxRectangle width="203" height="30" as="alternateBounds" />
          </mxGeometry>
        </mxCell>
        <mxCell id="-bWdCGEcmyoKLp3c-T4H-260" value="Backend: Korrekturen (alle)" style="shape=table;startSize=30;container=1;collapsible=0;childLayout=tableLayout;fixedRows=1;rowLines=0;fontStyle=0;fontSize=14;align=left;fillColor=#f5f5f5;strokeColor=#666666;fontColor=#333333;" parent="1" vertex="1">
          <mxGeometry x="2040" y="-250" width="300" height="120" as="geometry" />
        </mxCell>
        <mxCell id="-bWdCGEcmyoKLp3c-T4H-261" value="" style="shape=tableRow;horizontal=0;startSize=0;swimlaneHead=0;swimlaneBody=0;top=0;left=0;bottom=0;right=0;collapsible=0;dropTarget=0;fillColor=none;points=[[0,0.5],[1,0.5]];portConstraint=eastwest;strokeColor=inherit;fontSize=16;" parent="-bWdCGEcmyoKLp3c-T4H-260" vertex="1">
          <mxGeometry y="30" width="300" height="30" as="geometry" />
        </mxCell>
        <mxCell id="-bWdCGEcmyoKLp3c-T4H-262" value="Start" style="shape=partialRectangle;html=1;whiteSpace=wrap;connectable=0;fillColor=none;top=0;left=0;bottom=0;right=0;overflow=hidden;pointerEvents=1;strokeColor=inherit;fontSize=14;" parent="-bWdCGEcmyoKLp3c-T4H-261" vertex="1">
          <mxGeometry width="66" height="30" as="geometry">
            <mxRectangle width="66" height="30" as="alternateBounds" />
          </mxGeometry>
        </mxCell>
        <mxCell id="-bWdCGEcmyoKLp3c-T4H-263" value="26.05.2025" style="shape=partialRectangle;html=1;whiteSpace=wrap;connectable=0;fillColor=none;top=0;left=0;bottom=0;right=0;align=left;spacingLeft=6;overflow=hidden;strokeColor=inherit;fontSize=14;" parent="-bWdCGEcmyoKLp3c-T4H-261" vertex="1">
          <mxGeometry x="66" width="234" height="30" as="geometry">
            <mxRectangle width="234" height="30" as="alternateBounds" />
          </mxGeometry>
        </mxCell>
        <mxCell id="-bWdCGEcmyoKLp3c-T4H-264" value="" style="shape=tableRow;horizontal=0;startSize=0;swimlaneHead=0;swimlaneBody=0;top=0;left=0;bottom=0;right=0;collapsible=0;dropTarget=0;fillColor=none;points=[[0,0.5],[1,0.5]];portConstraint=eastwest;strokeColor=inherit;fontSize=16;" parent="-bWdCGEcmyoKLp3c-T4H-260" vertex="1">
          <mxGeometry y="60" width="300" height="30" as="geometry" />
        </mxCell>
        <mxCell id="-bWdCGEcmyoKLp3c-T4H-265" value="Thema" style="shape=partialRectangle;html=1;whiteSpace=wrap;connectable=0;fillColor=none;top=0;left=0;bottom=0;right=0;overflow=hidden;strokeColor=inherit;fontSize=14;" parent="-bWdCGEcmyoKLp3c-T4H-264" vertex="1">
          <mxGeometry width="66" height="30" as="geometry">
            <mxRectangle width="66" height="30" as="alternateBounds" />
          </mxGeometry>
        </mxCell>
        <mxCell id="-bWdCGEcmyoKLp3c-T4H-266" value="Bug-Fixing" style="shape=partialRectangle;html=1;whiteSpace=wrap;connectable=0;fillColor=none;top=0;left=0;bottom=0;right=0;align=left;spacingLeft=6;overflow=hidden;strokeColor=inherit;fontSize=14;" parent="-bWdCGEcmyoKLp3c-T4H-264" vertex="1">
          <mxGeometry x="66" width="234" height="30" as="geometry">
            <mxRectangle width="234" height="30" as="alternateBounds" />
          </mxGeometry>
        </mxCell>
        <mxCell id="-bWdCGEcmyoKLp3c-T4H-267" value="" style="shape=tableRow;horizontal=0;startSize=0;swimlaneHead=0;swimlaneBody=0;top=0;left=0;bottom=0;right=0;collapsible=0;dropTarget=0;fillColor=none;points=[[0,0.5],[1,0.5]];portConstraint=eastwest;strokeColor=inherit;fontSize=16;" parent="-bWdCGEcmyoKLp3c-T4H-260" vertex="1">
          <mxGeometry y="90" width="300" height="30" as="geometry" />
        </mxCell>
        <mxCell id="-bWdCGEcmyoKLp3c-T4H-268" value="Ende" style="shape=partialRectangle;html=1;whiteSpace=wrap;connectable=0;fillColor=none;top=0;left=0;bottom=0;right=0;overflow=hidden;strokeColor=inherit;fontSize=14;" parent="-bWdCGEcmyoKLp3c-T4H-267" vertex="1">
          <mxGeometry width="66" height="30" as="geometry">
            <mxRectangle width="66" height="30" as="alternateBounds" />
          </mxGeometry>
        </mxCell>
        <mxCell id="-bWdCGEcmyoKLp3c-T4H-269" value="27.06.2025" style="shape=partialRectangle;html=1;whiteSpace=wrap;connectable=0;fillColor=none;top=0;left=0;bottom=0;right=0;align=left;spacingLeft=6;overflow=hidden;strokeColor=inherit;fontSize=14;" parent="-bWdCGEcmyoKLp3c-T4H-267" vertex="1">
          <mxGeometry x="66" width="234" height="30" as="geometry">
            <mxRectangle width="234" height="30" as="alternateBounds" />
          </mxGeometry>
        </mxCell>
        <mxCell id="-bWdCGEcmyoKLp3c-T4H-235" value="" style="group" parent="1" vertex="1" connectable="0">
          <mxGeometry x="1610" y="-300" width="260" height="170" as="geometry" />
        </mxCell>
        <mxCell id="-bWdCGEcmyoKLp3c-T4H-236" value="&lt;div&gt;Anschluss der Datenbank&lt;/div&gt;&lt;div&gt;ans Backend&lt;/div&gt;" style="shape=hexagon;perimeter=hexagonPerimeter2;whiteSpace=wrap;html=1;fixedSize=1;fillColor=#a20025;strokeColor=#6F0000;fontSize=14;fontColor=#ffffff;" parent="-bWdCGEcmyoKLp3c-T4H-235" vertex="1">
          <mxGeometry x="10" y="70" width="240" height="90" as="geometry" />
        </mxCell>
        <mxCell id="-bWdCGEcmyoKLp3c-T4H-237" value="" style="swimlane;startSize=0;gradientColor=default;fillColor=#FFFFFF;" parent="-bWdCGEcmyoKLp3c-T4H-235" vertex="1">
          <mxGeometry width="260" height="170" as="geometry" />
        </mxCell>
        <mxCell id="-bWdCGEcmyoKLp3c-T4H-238" value="3. Deadline: 22.05.2025&lt;br&gt;Termin: 23.05.2025" style="rounded=0;whiteSpace=wrap;html=1;fontSize=16;fillColor=#a20025;fontColor=#ffffff;strokeColor=#6F0000;" parent="-bWdCGEcmyoKLp3c-T4H-237" vertex="1">
          <mxGeometry width="260" height="60" as="geometry" />
        </mxCell>
        <mxCell id="-bWdCGEcmyoKLp3c-T4H-273" style="edgeStyle=orthogonalEdgeStyle;rounded=0;orthogonalLoop=1;jettySize=auto;html=1;exitX=1;exitY=0.5;exitDx=0;exitDy=0;entryX=0;entryY=0.5;entryDx=0;entryDy=0;endArrow=none;startFill=0;" parent="1" source="-bWdCGEcmyoKLp3c-T4H-127" target="-bWdCGEcmyoKLp3c-T4H-169" edge="1">
          <mxGeometry relative="1" as="geometry" />
        </mxCell>
        <mxCell id="-bWdCGEcmyoKLp3c-T4H-274" style="edgeStyle=orthogonalEdgeStyle;rounded=0;orthogonalLoop=1;jettySize=auto;html=1;exitX=1;exitY=0.5;exitDx=0;exitDy=0;entryX=0;entryY=0.5;entryDx=0;entryDy=0;endArrow=none;startFill=0;" parent="1" source="-bWdCGEcmyoKLp3c-T4H-127" target="-bWdCGEcmyoKLp3c-T4H-159" edge="1">
          <mxGeometry relative="1" as="geometry" />
        </mxCell>
        <mxCell id="-bWdCGEcmyoKLp3c-T4H-275" style="edgeStyle=orthogonalEdgeStyle;rounded=0;orthogonalLoop=1;jettySize=auto;html=1;exitX=1;exitY=0.5;exitDx=0;exitDy=0;entryX=0;entryY=0.5;entryDx=0;entryDy=0;endArrow=none;startFill=0;" parent="1" source="-bWdCGEcmyoKLp3c-T4H-127" target="-bWdCGEcmyoKLp3c-T4H-148" edge="1">
          <mxGeometry relative="1" as="geometry" />
        </mxCell>
        <mxCell id="-bWdCGEcmyoKLp3c-T4H-276" style="edgeStyle=orthogonalEdgeStyle;rounded=0;orthogonalLoop=1;jettySize=auto;html=1;exitX=1;exitY=0.5;exitDx=0;exitDy=0;entryX=0;entryY=0.5;entryDx=0;entryDy=0;endArrow=none;startFill=0;dashed=1;" parent="1" source="-bWdCGEcmyoKLp3c-T4H-127" target="-bWdCGEcmyoKLp3c-T4H-218" edge="1">
          <mxGeometry relative="1" as="geometry" />
        </mxCell>
        <mxCell id="-bWdCGEcmyoKLp3c-T4H-278" style="edgeStyle=orthogonalEdgeStyle;rounded=0;orthogonalLoop=1;jettySize=auto;html=1;exitX=1;exitY=0.5;exitDx=0;exitDy=0;entryX=1;entryY=0.5;entryDx=0;entryDy=0;endArrow=none;startFill=0;" parent="1" source="-bWdCGEcmyoKLp3c-T4H-132" target="-bWdCGEcmyoKLp3c-T4H-127" edge="1">
          <mxGeometry relative="1" as="geometry" />
        </mxCell>
        <mxCell id="-bWdCGEcmyoKLp3c-T4H-279" style="edgeStyle=orthogonalEdgeStyle;rounded=0;orthogonalLoop=1;jettySize=auto;html=1;exitX=1;exitY=0.5;exitDx=0;exitDy=0;entryX=0;entryY=0.5;entryDx=0;entryDy=0;endArrow=none;startFill=0;" parent="1" source="-bWdCGEcmyoKLp3c-T4H-127" target="-bWdCGEcmyoKLp3c-T4H-179" edge="1">
          <mxGeometry relative="1" as="geometry" />
        </mxCell>
        <mxCell id="-bWdCGEcmyoKLp3c-T4H-280" style="edgeStyle=orthogonalEdgeStyle;rounded=0;orthogonalLoop=1;jettySize=auto;html=1;exitX=1;exitY=0.5;exitDx=0;exitDy=0;entryX=0;entryY=0.5;entryDx=0;entryDy=0;endArrow=none;startFill=0;" parent="1" source="-bWdCGEcmyoKLp3c-T4H-127" target="-bWdCGEcmyoKLp3c-T4H-189" edge="1">
          <mxGeometry relative="1" as="geometry" />
        </mxCell>
        <mxCell id="-bWdCGEcmyoKLp3c-T4H-286" style="edgeStyle=orthogonalEdgeStyle;rounded=0;orthogonalLoop=1;jettySize=auto;html=1;exitX=0.5;exitY=1;exitDx=0;exitDy=0;entryX=0.5;entryY=0;entryDx=0;entryDy=0;endArrow=none;startFill=0;" parent="1" source="-bWdCGEcmyoKLp3c-T4H-233" target="-bWdCGEcmyoKLp3c-T4H-240" edge="1">
          <mxGeometry relative="1" as="geometry" />
        </mxCell>
        <mxCell id="-bWdCGEcmyoKLp3c-T4H-288" style="edgeStyle=orthogonalEdgeStyle;rounded=0;orthogonalLoop=1;jettySize=auto;html=1;exitX=1;exitY=0.5;exitDx=0;exitDy=0;entryX=0;entryY=0.5;entryDx=0;entryDy=0;endArrow=none;startFill=0;" parent="1" source="-bWdCGEcmyoKLp3c-T4H-237" target="-bWdCGEcmyoKLp3c-T4H-264" edge="1">
          <mxGeometry relative="1" as="geometry" />
        </mxCell>
        <mxCell id="-bWdCGEcmyoKLp3c-T4H-291" value="T E S T P H A S E" style="html=1;shadow=0;dashed=0;align=center;verticalAlign=middle;shape=mxgraph.arrows2.arrow;dy=0;dx=30;notch=30;fontSize=16;fontStyle=1;fillColor=#ffcccc;strokeColor=#36393d;" parent="1" vertex="1">
          <mxGeometry x="2010" y="-110" width="390" height="40" as="geometry" />
        </mxCell>
        <mxCell id="-bWdCGEcmyoKLp3c-T4H-292" value="Testphase: FunktionalitÃ¤t &amp; Datenspeicherung" style="shape=table;startSize=30;container=1;collapsible=0;childLayout=tableLayout;fixedRows=1;rowLines=0;fontStyle=0;fontSize=14;align=left;fillColor=#f5f5f5;strokeColor=#666666;fontColor=#333333;" parent="1" vertex="1">
          <mxGeometry x="2040" y="-830" width="300" height="120" as="geometry" />
        </mxCell>
        <mxCell id="-bWdCGEcmyoKLp3c-T4H-293" value="" style="shape=tableRow;horizontal=0;startSize=0;swimlaneHead=0;swimlaneBody=0;top=0;left=0;bottom=0;right=0;collapsible=0;dropTarget=0;fillColor=none;points=[[0,0.5],[1,0.5]];portConstraint=eastwest;strokeColor=inherit;fontSize=16;" parent="-bWdCGEcmyoKLp3c-T4H-292" vertex="1">
          <mxGeometry y="30" width="300" height="30" as="geometry" />
        </mxCell>
        <mxCell id="-bWdCGEcmyoKLp3c-T4H-294" value="Start" style="shape=partialRectangle;html=1;whiteSpace=wrap;connectable=0;fillColor=none;top=0;left=0;bottom=0;right=0;overflow=hidden;pointerEvents=1;strokeColor=inherit;fontSize=14;" parent="-bWdCGEcmyoKLp3c-T4H-293" vertex="1">
          <mxGeometry width="65" height="30" as="geometry">
            <mxRectangle width="65" height="30" as="alternateBounds" />
          </mxGeometry>
        </mxCell>
        <mxCell id="-bWdCGEcmyoKLp3c-T4H-295" value="26.05.2025" style="shape=partialRectangle;html=1;whiteSpace=wrap;connectable=0;fillColor=none;top=0;left=0;bottom=0;right=0;align=left;spacingLeft=6;overflow=hidden;strokeColor=inherit;fontSize=14;" parent="-bWdCGEcmyoKLp3c-T4H-293" vertex="1">
          <mxGeometry x="65" width="235" height="30" as="geometry">
            <mxRectangle width="235" height="30" as="alternateBounds" />
          </mxGeometry>
        </mxCell>
        <mxCell id="-bWdCGEcmyoKLp3c-T4H-296" value="" style="shape=tableRow;horizontal=0;startSize=0;swimlaneHead=0;swimlaneBody=0;top=0;left=0;bottom=0;right=0;collapsible=0;dropTarget=0;fillColor=none;points=[[0,0.5],[1,0.5]];portConstraint=eastwest;strokeColor=inherit;fontSize=16;" parent="-bWdCGEcmyoKLp3c-T4H-292" vertex="1">
          <mxGeometry y="60" width="300" height="30" as="geometry" />
        </mxCell>
        <mxCell id="-bWdCGEcmyoKLp3c-T4H-297" value="Thema" style="shape=partialRectangle;html=1;whiteSpace=wrap;connectable=0;fillColor=none;top=0;left=0;bottom=0;right=0;overflow=hidden;strokeColor=inherit;fontSize=14;" parent="-bWdCGEcmyoKLp3c-T4H-296" vertex="1">
          <mxGeometry width="65" height="30" as="geometry">
            <mxRectangle width="65" height="30" as="alternateBounds" />
          </mxGeometry>
        </mxCell>
        <mxCell id="-bWdCGEcmyoKLp3c-T4H-298" value="Testen des gesamten Backend" style="shape=partialRectangle;html=1;whiteSpace=wrap;connectable=0;fillColor=none;top=0;left=0;bottom=0;right=0;align=left;spacingLeft=6;overflow=hidden;strokeColor=inherit;fontSize=14;" parent="-bWdCGEcmyoKLp3c-T4H-296" vertex="1">
          <mxGeometry x="65" width="235" height="30" as="geometry">
            <mxRectangle width="235" height="30" as="alternateBounds" />
          </mxGeometry>
        </mxCell>
        <mxCell id="-bWdCGEcmyoKLp3c-T4H-299" value="" style="shape=tableRow;horizontal=0;startSize=0;swimlaneHead=0;swimlaneBody=0;top=0;left=0;bottom=0;right=0;collapsible=0;dropTarget=0;fillColor=none;points=[[0,0.5],[1,0.5]];portConstraint=eastwest;strokeColor=inherit;fontSize=16;" parent="-bWdCGEcmyoKLp3c-T4H-292" vertex="1">
          <mxGeometry y="90" width="300" height="30" as="geometry" />
        </mxCell>
        <mxCell id="-bWdCGEcmyoKLp3c-T4H-300" value="Ende" style="shape=partialRectangle;html=1;whiteSpace=wrap;connectable=0;fillColor=none;top=0;left=0;bottom=0;right=0;overflow=hidden;strokeColor=inherit;fontSize=14;" parent="-bWdCGEcmyoKLp3c-T4H-299" vertex="1">
          <mxGeometry width="65" height="30" as="geometry">
            <mxRectangle width="65" height="30" as="alternateBounds" />
          </mxGeometry>
        </mxCell>
        <mxCell id="-bWdCGEcmyoKLp3c-T4H-301" value="27.06.2025" style="shape=partialRectangle;html=1;whiteSpace=wrap;connectable=0;fillColor=none;top=0;left=0;bottom=0;right=0;align=left;spacingLeft=6;overflow=hidden;strokeColor=inherit;fontSize=14;" parent="-bWdCGEcmyoKLp3c-T4H-299" vertex="1">
          <mxGeometry x="65" width="235" height="30" as="geometry">
            <mxRectangle width="235" height="30" as="alternateBounds" />
          </mxGeometry>
        </mxCell>
        <mxCell id="-bWdCGEcmyoKLp3c-T4H-302" value="Test-Klasse schreiben" style="shape=display;whiteSpace=wrap;html=1;align=right;spacing=8;fillColor=#f5f5f5;strokeColor=#666666;fontColor=#333333;fontSize=14;" parent="1" vertex="1">
          <mxGeometry x="2050" y="-700" width="220" height="40" as="geometry" />
        </mxCell>
        <mxCell id="-bWdCGEcmyoKLp3c-T4H-303" value="Backend-FunktionalitÃ¤t testen" style="shape=display;whiteSpace=wrap;html=1;align=right;spacing=8;fillColor=#f5f5f5;strokeColor=#666666;fontColor=#333333;fontSize=14;" parent="1" vertex="1">
          <mxGeometry x="2050" y="-650" width="220" height="40" as="geometry" />
        </mxCell>
        <mxCell id="-bWdCGEcmyoKLp3c-T4H-304" value="Datenspeicherung testen" style="shape=display;whiteSpace=wrap;html=1;align=right;spacing=8;fillColor=#f5f5f5;strokeColor=#666666;fontColor=#333333;fontSize=14;" parent="1" vertex="1">
          <mxGeometry x="2050" y="-600" width="220" height="40" as="geometry" />
        </mxCell>
        <mxCell id="-bWdCGEcmyoKLp3c-T4H-307" value="Daten sichern" style="shape=display;whiteSpace=wrap;html=1;align=right;spacing=8;fillColor=#f5f5f5;strokeColor=#666666;fontColor=#333333;fontSize=14;" parent="1" vertex="1">
          <mxGeometry x="2110" y="-550" width="160" height="20" as="geometry" />
        </mxCell>
        <mxCell id="-bWdCGEcmyoKLp3c-T4H-308" value="Code aufrÃ¤umen" style="shape=display;whiteSpace=wrap;html=1;align=right;spacing=8;fillColor=#f5f5f5;strokeColor=#666666;fontColor=#333333;fontSize=14;" parent="1" vertex="1">
          <mxGeometry x="2050" y="-490" width="220" height="40" as="geometry" />
        </mxCell>
        <mxCell id="-bWdCGEcmyoKLp3c-T4H-309" value="Daten abrufen" style="shape=display;whiteSpace=wrap;html=1;align=right;spacing=8;fillColor=#f5f5f5;strokeColor=#666666;fontColor=#333333;fontSize=14;" parent="1" vertex="1">
          <mxGeometry x="2110" y="-520" width="160" height="20" as="geometry" />
        </mxCell>
        <mxCell id="-bWdCGEcmyoKLp3c-T4H-310" value="Auskommentieren" style="shape=display;whiteSpace=wrap;html=1;align=right;spacing=8;fillColor=#f5f5f5;strokeColor=#666666;fontColor=#333333;fontSize=14;" parent="1" vertex="1">
          <mxGeometry x="2110" y="-440" width="160" height="20" as="geometry" />
        </mxCell>
        <mxCell id="-bWdCGEcmyoKLp3c-T4H-311" value="UnnÃ¶tiges Entfernen" style="shape=display;whiteSpace=wrap;html=1;align=right;spacing=8;fillColor=#f5f5f5;strokeColor=#666666;fontColor=#333333;fontSize=14;" parent="1" vertex="1">
          <mxGeometry x="2110" y="-410" width="160" height="20" as="geometry" />
        </mxCell>
        <mxCell id="-bWdCGEcmyoKLp3c-T4H-312" value="JavaDocs anlegen" style="shape=display;whiteSpace=wrap;html=1;align=right;spacing=8;fillColor=#f5f5f5;strokeColor=#666666;fontColor=#333333;fontSize=14;" parent="1" vertex="1">
          <mxGeometry x="2110" y="-380" width="160" height="20" as="geometry" />
        </mxCell>
        <mxCell id="-bWdCGEcmyoKLp3c-T4H-313" value="Optimieren" style="shape=display;whiteSpace=wrap;html=1;align=right;spacing=8;fillColor=#f5f5f5;strokeColor=#666666;fontColor=#333333;fontSize=14;" parent="1" vertex="1">
          <mxGeometry x="2110" y="-350" width="160" height="20" as="geometry" />
        </mxCell>
        <mxCell id="-bWdCGEcmyoKLp3c-T4H-317" style="edgeStyle=orthogonalEdgeStyle;rounded=0;orthogonalLoop=1;jettySize=auto;html=1;exitX=1;exitY=0.5;exitDx=0;exitDy=0;exitPerimeter=0;entryX=0;entryY=0.5;entryDx=0;entryDy=0;entryPerimeter=0;endArrow=none;startFill=0;" parent="1" source="-bWdCGEcmyoKLp3c-T4H-212" target="-bWdCGEcmyoKLp3c-T4H-213" edge="1">
          <mxGeometry relative="1" as="geometry">
            <Array as="points">
              <mxPoint x="860" y="-175" />
              <mxPoint x="860" y="-265" />
            </Array>
          </mxGeometry>
        </mxCell>
        <mxCell id="-bWdCGEcmyoKLp3c-T4H-321" style="edgeStyle=orthogonalEdgeStyle;rounded=0;orthogonalLoop=1;jettySize=auto;html=1;entryX=0;entryY=0.5;entryDx=0;entryDy=0;entryPerimeter=0;endArrow=none;startFill=0;" parent="1" source="-bWdCGEcmyoKLp3c-T4H-211" target="-bWdCGEcmyoKLp3c-T4H-213" edge="1">
          <mxGeometry relative="1" as="geometry" />
        </mxCell>
        <mxCell id="-bWdCGEcmyoKLp3c-T4H-322" value="P H A S E&amp;nbsp; &amp;nbsp;5 :&amp;nbsp; &amp;nbsp;F R O N T E N D&amp;nbsp; &amp;nbsp;-&amp;nbsp; &amp;nbsp;G E S T A L T U N G" style="html=1;shadow=0;dashed=0;align=center;verticalAlign=middle;shape=mxgraph.arrows2.arrow;dy=0;dx=30;notch=30;fontSize=16;fontStyle=1;fillColor=#f9f7ed;strokeColor=#36393d;" parent="1" vertex="1">
          <mxGeometry x="2370" y="-110" width="550" height="40" as="geometry" />
        </mxCell>
        <mxCell id="-bWdCGEcmyoKLp3c-T4H-323" value="P H A S E&amp;nbsp; &amp;nbsp;6 :&amp;nbsp; &amp;nbsp;D A T E N A U S T A U S C H&amp;nbsp; &amp;nbsp;F R O N T -&amp;nbsp; &amp;nbsp;&amp;amp;&amp;nbsp; &amp;nbsp; B A C K E N D" style="html=1;shadow=0;dashed=0;align=center;verticalAlign=middle;shape=mxgraph.arrows2.arrow;dy=0;dx=30;notch=30;fontSize=16;fontStyle=1;fillColor=#eeeeee;strokeColor=#36393d;" parent="1" vertex="1">
          <mxGeometry x="2890" y="-110" width="1060" height="40" as="geometry" />
        </mxCell>
        <mxCell id="-bWdCGEcmyoKLp3c-T4H-324" value="P H A S E&amp;nbsp; &amp;nbsp;7 :&amp;nbsp; &amp;nbsp;F R O N T E N D&amp;nbsp; &amp;nbsp;-&amp;nbsp; &amp;nbsp;F U N K T I O N A L I T Ã T" style="html=1;shadow=0;dashed=0;align=center;verticalAlign=middle;shape=mxgraph.arrows2.arrow;dy=0;dx=30;notch=30;fontSize=16;fontStyle=1;fillColor=#f9f7ed;strokeColor=#36393d;" parent="1" vertex="1">
          <mxGeometry x="3920" y="-110" width="550" height="40" as="geometry" />
        </mxCell>
        <mxCell id="-bWdCGEcmyoKLp3c-T4H-375" value="Frontend: MenÃ¼s erstellen" style="shape=table;startSize=30;container=1;collapsible=0;childLayout=tableLayout;fixedRows=1;rowLines=0;fontStyle=0;fontSize=14;align=left;fillColor=#ffcccc;strokeColor=#36393d;" parent="1" vertex="1">
          <mxGeometry x="2440" y="-590" width="300" height="120" as="geometry" />
        </mxCell>
        <mxCell id="-bWdCGEcmyoKLp3c-T4H-376" value="" style="shape=tableRow;horizontal=0;startSize=0;swimlaneHead=0;swimlaneBody=0;top=0;left=0;bottom=0;right=0;collapsible=0;dropTarget=0;fillColor=none;points=[[0,0.5],[1,0.5]];portConstraint=eastwest;strokeColor=inherit;fontSize=16;" parent="-bWdCGEcmyoKLp3c-T4H-375" vertex="1">
          <mxGeometry y="30" width="300" height="30" as="geometry" />
        </mxCell>
        <mxCell id="-bWdCGEcmyoKLp3c-T4H-377" value="Start" style="shape=partialRectangle;html=1;whiteSpace=wrap;connectable=0;fillColor=none;top=0;left=0;bottom=0;right=0;overflow=hidden;pointerEvents=1;strokeColor=inherit;fontSize=14;" parent="-bWdCGEcmyoKLp3c-T4H-376" vertex="1">
          <mxGeometry width="65" height="30" as="geometry">
            <mxRectangle width="65" height="30" as="alternateBounds" />
          </mxGeometry>
        </mxCell>
        <mxCell id="-bWdCGEcmyoKLp3c-T4H-378" value="02.07.2025" style="shape=partialRectangle;html=1;whiteSpace=wrap;connectable=0;fillColor=none;top=0;left=0;bottom=0;right=0;align=left;spacingLeft=6;overflow=hidden;strokeColor=inherit;fontSize=14;" parent="-bWdCGEcmyoKLp3c-T4H-376" vertex="1">
          <mxGeometry x="65" width="235" height="30" as="geometry">
            <mxRectangle width="235" height="30" as="alternateBounds" />
          </mxGeometry>
        </mxCell>
        <mxCell id="-bWdCGEcmyoKLp3c-T4H-379" value="" style="shape=tableRow;horizontal=0;startSize=0;swimlaneHead=0;swimlaneBody=0;top=0;left=0;bottom=0;right=0;collapsible=0;dropTarget=0;fillColor=none;points=[[0,0.5],[1,0.5]];portConstraint=eastwest;strokeColor=inherit;fontSize=16;" parent="-bWdCGEcmyoKLp3c-T4H-375" vertex="1">
          <mxGeometry y="60" width="300" height="30" as="geometry" />
        </mxCell>
        <mxCell id="-bWdCGEcmyoKLp3c-T4H-380" value="Thema" style="shape=partialRectangle;html=1;whiteSpace=wrap;connectable=0;fillColor=none;top=0;left=0;bottom=0;right=0;overflow=hidden;strokeColor=inherit;fontSize=14;" parent="-bWdCGEcmyoKLp3c-T4H-379" vertex="1">
          <mxGeometry width="65" height="30" as="geometry">
            <mxRectangle width="65" height="30" as="alternateBounds" />
          </mxGeometry>
        </mxCell>
        <mxCell id="-bWdCGEcmyoKLp3c-T4H-381" value="Gestaltung sÃ¤mtlicher MenÃ¼s" style="shape=partialRectangle;html=1;whiteSpace=wrap;connectable=0;fillColor=none;top=0;left=0;bottom=0;right=0;align=left;spacingLeft=6;overflow=hidden;strokeColor=inherit;fontSize=14;" parent="-bWdCGEcmyoKLp3c-T4H-379" vertex="1">
          <mxGeometry x="65" width="235" height="30" as="geometry">
            <mxRectangle width="235" height="30" as="alternateBounds" />
          </mxGeometry>
        </mxCell>
        <mxCell id="-bWdCGEcmyoKLp3c-T4H-382" value="" style="shape=tableRow;horizontal=0;startSize=0;swimlaneHead=0;swimlaneBody=0;top=0;left=0;bottom=0;right=0;collapsible=0;dropTarget=0;fillColor=none;points=[[0,0.5],[1,0.5]];portConstraint=eastwest;strokeColor=inherit;fontSize=16;" parent="-bWdCGEcmyoKLp3c-T4H-375" vertex="1">
          <mxGeometry y="90" width="300" height="30" as="geometry" />
        </mxCell>
        <mxCell id="-bWdCGEcmyoKLp3c-T4H-383" value="Ende" style="shape=partialRectangle;html=1;whiteSpace=wrap;connectable=0;fillColor=none;top=0;left=0;bottom=0;right=0;overflow=hidden;strokeColor=inherit;fontSize=14;" parent="-bWdCGEcmyoKLp3c-T4H-382" vertex="1">
          <mxGeometry width="65" height="30" as="geometry">
            <mxRectangle width="65" height="30" as="alternateBounds" />
          </mxGeometry>
        </mxCell>
        <mxCell id="-bWdCGEcmyoKLp3c-T4H-384" value="TBA" style="shape=partialRectangle;html=1;whiteSpace=wrap;connectable=0;fillColor=none;top=0;left=0;bottom=0;right=0;align=left;spacingLeft=6;overflow=hidden;strokeColor=inherit;fontSize=14;" parent="-bWdCGEcmyoKLp3c-T4H-382" vertex="1">
          <mxGeometry x="65" width="235" height="30" as="geometry">
            <mxRectangle width="235" height="30" as="alternateBounds" />
          </mxGeometry>
        </mxCell>
        <mxCell id="-bWdCGEcmyoKLp3c-T4H-385" style="edgeStyle=orthogonalEdgeStyle;rounded=0;orthogonalLoop=1;jettySize=auto;html=1;exitX=0;exitY=0.5;exitDx=0;exitDy=0;entryX=0;entryY=0.5;entryDx=0;entryDy=0;" parent="1" source="-bWdCGEcmyoKLp3c-T4H-261" target="-bWdCGEcmyoKLp3c-T4H-299" edge="1">
          <mxGeometry relative="1" as="geometry" />
        </mxCell>
        <mxCell id="-bWdCGEcmyoKLp3c-T4H-386" style="edgeStyle=orthogonalEdgeStyle;rounded=0;orthogonalLoop=1;jettySize=auto;html=1;exitX=1;exitY=0.5;exitDx=0;exitDy=0;entryX=1;entryY=0.5;entryDx=0;entryDy=0;" parent="1" source="-bWdCGEcmyoKLp3c-T4H-299" target="-bWdCGEcmyoKLp3c-T4H-261" edge="1">
          <mxGeometry relative="1" as="geometry" />
        </mxCell>
        <mxCell id="-bWdCGEcmyoKLp3c-T4H-387" style="edgeStyle=orthogonalEdgeStyle;rounded=0;orthogonalLoop=1;jettySize=auto;html=1;exitX=1;exitY=0.5;exitDx=0;exitDy=0;entryX=0;entryY=0.5;entryDx=0;entryDy=0;" parent="1" source="-bWdCGEcmyoKLp3c-T4H-296" target="-bWdCGEcmyoKLp3c-T4H-379" edge="1">
          <mxGeometry relative="1" as="geometry" />
        </mxCell>
        <mxCell id="-bWdCGEcmyoKLp3c-T4H-392" value="Optionen" style="shape=display;whiteSpace=wrap;html=1;align=right;spacing=8;fillColor=#f5f5f5;strokeColor=#666666;fontColor=#333333;fontSize=14;" parent="1" vertex="1">
          <mxGeometry x="2450" y="-360" width="120" height="40" as="geometry" />
        </mxCell>
        <mxCell id="-bWdCGEcmyoKLp3c-T4H-393" value="Statistiken" style="shape=display;whiteSpace=wrap;html=1;align=right;spacing=8;fillColor=#f5f5f5;strokeColor=#666666;fontColor=#333333;fontSize=14;" parent="1" vertex="1">
          <mxGeometry x="2600" y="-410" width="120" height="40" as="geometry" />
        </mxCell>
        <mxCell id="-bWdCGEcmyoKLp3c-T4H-394" value="Kampf" style="shape=display;whiteSpace=wrap;html=1;align=right;spacing=8;fillColor=#f5f5f5;strokeColor=#666666;fontColor=#333333;fontSize=14;" parent="1" vertex="1">
          <mxGeometry x="2450" y="-410" width="120" height="40" as="geometry" />
        </mxCell>
        <mxCell id="-bWdCGEcmyoKLp3c-T4H-395" value="Shop" style="shape=display;whiteSpace=wrap;html=1;align=right;spacing=8;fillColor=#f5f5f5;strokeColor=#666666;fontColor=#333333;fontSize=14;" parent="1" vertex="1">
          <mxGeometry x="2600" y="-460" width="120" height="40" as="geometry" />
        </mxCell>
        <mxCell id="-bWdCGEcmyoKLp3c-T4H-396" value="HauptmenÃ¼" style="shape=display;whiteSpace=wrap;html=1;align=right;spacing=8;fillColor=#f5f5f5;strokeColor=#666666;fontColor=#333333;fontSize=14;" parent="1" vertex="1">
          <mxGeometry x="2450" y="-460" width="120" height="40" as="geometry" />
        </mxCell>
        <mxCell id="-bWdCGEcmyoKLp3c-T4H-409" value="-" style="shape=display;whiteSpace=wrap;html=1;align=right;spacing=8;fillColor=#f5f5f5;strokeColor=#666666;fontColor=#333333;fontSize=14;" parent="1" vertex="1">
          <mxGeometry x="2600" y="-360" width="120" height="40" as="geometry" />
        </mxCell>
        <mxCell id="-bWdCGEcmyoKLp3c-T4H-410" value="-" style="shape=display;whiteSpace=wrap;html=1;align=right;spacing=8;fillColor=#f5f5f5;strokeColor=#666666;fontColor=#333333;fontSize=14;" parent="1" vertex="1">
          <mxGeometry x="2450" y="-310" width="120" height="40" as="geometry" />
        </mxCell>
        <mxCell id="-bWdCGEcmyoKLp3c-T4H-415" value="Kommunikation: Spielstart" style="shape=table;startSize=30;container=1;collapsible=0;childLayout=tableLayout;fixedRows=1;rowLines=0;fontStyle=0;fontSize=14;align=left;fillColor=#eeeeee;strokeColor=#36393d;" parent="1" vertex="1">
          <mxGeometry x="2960" y="-530" width="300" height="120" as="geometry" />
        </mxCell>
        <mxCell id="-bWdCGEcmyoKLp3c-T4H-416" value="" style="shape=tableRow;horizontal=0;startSize=0;swimlaneHead=0;swimlaneBody=0;top=0;left=0;bottom=0;right=0;collapsible=0;dropTarget=0;fillColor=none;points=[[0,0.5],[1,0.5]];portConstraint=eastwest;strokeColor=inherit;fontSize=16;" parent="-bWdCGEcmyoKLp3c-T4H-415" vertex="1">
          <mxGeometry y="30" width="300" height="30" as="geometry" />
        </mxCell>
        <mxCell id="-bWdCGEcmyoKLp3c-T4H-417" value="Start" style="shape=partialRectangle;html=1;whiteSpace=wrap;connectable=0;fillColor=none;top=0;left=0;bottom=0;right=0;overflow=hidden;pointerEvents=1;strokeColor=inherit;fontSize=14;" parent="-bWdCGEcmyoKLp3c-T4H-416" vertex="1">
          <mxGeometry width="65" height="30" as="geometry">
            <mxRectangle width="65" height="30" as="alternateBounds" />
          </mxGeometry>
        </mxCell>
        <mxCell id="-bWdCGEcmyoKLp3c-T4H-418" value="TBA" style="shape=partialRectangle;html=1;whiteSpace=wrap;connectable=0;fillColor=none;top=0;left=0;bottom=0;right=0;align=left;spacingLeft=6;overflow=hidden;strokeColor=inherit;fontSize=14;" parent="-bWdCGEcmyoKLp3c-T4H-416" vertex="1">
          <mxGeometry x="65" width="235" height="30" as="geometry">
            <mxRectangle width="235" height="30" as="alternateBounds" />
          </mxGeometry>
        </mxCell>
        <mxCell id="-bWdCGEcmyoKLp3c-T4H-419" value="" style="shape=tableRow;horizontal=0;startSize=0;swimlaneHead=0;swimlaneBody=0;top=0;left=0;bottom=0;right=0;collapsible=0;dropTarget=0;fillColor=none;points=[[0,0.5],[1,0.5]];portConstraint=eastwest;strokeColor=inherit;fontSize=16;" parent="-bWdCGEcmyoKLp3c-T4H-415" vertex="1">
          <mxGeometry y="60" width="300" height="30" as="geometry" />
        </mxCell>
        <mxCell id="-bWdCGEcmyoKLp3c-T4H-420" value="Thema" style="shape=partialRectangle;html=1;whiteSpace=wrap;connectable=0;fillColor=none;top=0;left=0;bottom=0;right=0;overflow=hidden;strokeColor=inherit;fontSize=14;" parent="-bWdCGEcmyoKLp3c-T4H-419" vertex="1">
          <mxGeometry width="65" height="30" as="geometry">
            <mxRectangle width="65" height="30" as="alternateBounds" />
          </mxGeometry>
        </mxCell>
        <mxCell id="-bWdCGEcmyoKLp3c-T4H-421" value="Datenaustausch Front- &amp;amp; Backend" style="shape=partialRectangle;html=1;whiteSpace=wrap;connectable=0;fillColor=none;top=0;left=0;bottom=0;right=0;align=left;spacingLeft=6;overflow=hidden;strokeColor=inherit;fontSize=14;" parent="-bWdCGEcmyoKLp3c-T4H-419" vertex="1">
          <mxGeometry x="65" width="235" height="30" as="geometry">
            <mxRectangle width="235" height="30" as="alternateBounds" />
          </mxGeometry>
        </mxCell>
        <mxCell id="-bWdCGEcmyoKLp3c-T4H-422" value="" style="shape=tableRow;horizontal=0;startSize=0;swimlaneHead=0;swimlaneBody=0;top=0;left=0;bottom=0;right=0;collapsible=0;dropTarget=0;fillColor=none;points=[[0,0.5],[1,0.5]];portConstraint=eastwest;strokeColor=inherit;fontSize=16;" parent="-bWdCGEcmyoKLp3c-T4H-415" vertex="1">
          <mxGeometry y="90" width="300" height="30" as="geometry" />
        </mxCell>
        <mxCell id="-bWdCGEcmyoKLp3c-T4H-423" value="Ende" style="shape=partialRectangle;html=1;whiteSpace=wrap;connectable=0;fillColor=none;top=0;left=0;bottom=0;right=0;overflow=hidden;strokeColor=inherit;fontSize=14;" parent="-bWdCGEcmyoKLp3c-T4H-422" vertex="1">
          <mxGeometry width="65" height="30" as="geometry">
            <mxRectangle width="65" height="30" as="alternateBounds" />
          </mxGeometry>
        </mxCell>
        <mxCell id="-bWdCGEcmyoKLp3c-T4H-424" value="TBA" style="shape=partialRectangle;html=1;whiteSpace=wrap;connectable=0;fillColor=none;top=0;left=0;bottom=0;right=0;align=left;spacingLeft=6;overflow=hidden;strokeColor=inherit;fontSize=14;" parent="-bWdCGEcmyoKLp3c-T4H-422" vertex="1">
          <mxGeometry x="65" width="235" height="30" as="geometry">
            <mxRectangle width="235" height="30" as="alternateBounds" />
          </mxGeometry>
        </mxCell>
        <mxCell id="-bWdCGEcmyoKLp3c-T4H-520" style="edgeStyle=orthogonalEdgeStyle;rounded=0;orthogonalLoop=1;jettySize=auto;html=1;entryX=0;entryY=0.5;entryDx=0;entryDy=0;endArrow=none;startFill=0;" parent="1" source="-bWdCGEcmyoKLp3c-T4H-433" target="-bWdCGEcmyoKLp3c-T4H-511" edge="1">
          <mxGeometry relative="1" as="geometry" />
        </mxCell>
        <mxCell id="-bWdCGEcmyoKLp3c-T4H-433" value="Kommunikation: Statistiken" style="shape=table;startSize=30;container=1;collapsible=0;childLayout=tableLayout;fixedRows=1;rowLines=0;fontStyle=0;fontSize=14;align=left;fillColor=#eeeeee;strokeColor=#36393d;" parent="1" vertex="1">
          <mxGeometry x="3280" y="-530" width="300" height="120" as="geometry" />
        </mxCell>
        <mxCell id="-bWdCGEcmyoKLp3c-T4H-434" value="" style="shape=tableRow;horizontal=0;startSize=0;swimlaneHead=0;swimlaneBody=0;top=0;left=0;bottom=0;right=0;collapsible=0;dropTarget=0;fillColor=none;points=[[0,0.5],[1,0.5]];portConstraint=eastwest;strokeColor=inherit;fontSize=16;" parent="-bWdCGEcmyoKLp3c-T4H-433" vertex="1">
          <mxGeometry y="30" width="300" height="30" as="geometry" />
        </mxCell>
        <mxCell id="-bWdCGEcmyoKLp3c-T4H-435" value="Start" style="shape=partialRectangle;html=1;whiteSpace=wrap;connectable=0;fillColor=none;top=0;left=0;bottom=0;right=0;overflow=hidden;pointerEvents=1;strokeColor=inherit;fontSize=14;" parent="-bWdCGEcmyoKLp3c-T4H-434" vertex="1">
          <mxGeometry width="65" height="30" as="geometry">
            <mxRectangle width="65" height="30" as="alternateBounds" />
          </mxGeometry>
        </mxCell>
        <mxCell id="-bWdCGEcmyoKLp3c-T4H-436" value="TBA" style="shape=partialRectangle;html=1;whiteSpace=wrap;connectable=0;fillColor=none;top=0;left=0;bottom=0;right=0;align=left;spacingLeft=6;overflow=hidden;strokeColor=inherit;fontSize=14;" parent="-bWdCGEcmyoKLp3c-T4H-434" vertex="1">
          <mxGeometry x="65" width="235" height="30" as="geometry">
            <mxRectangle width="235" height="30" as="alternateBounds" />
          </mxGeometry>
        </mxCell>
        <mxCell id="-bWdCGEcmyoKLp3c-T4H-437" value="" style="shape=tableRow;horizontal=0;startSize=0;swimlaneHead=0;swimlaneBody=0;top=0;left=0;bottom=0;right=0;collapsible=0;dropTarget=0;fillColor=none;points=[[0,0.5],[1,0.5]];portConstraint=eastwest;strokeColor=inherit;fontSize=16;" parent="-bWdCGEcmyoKLp3c-T4H-433" vertex="1">
          <mxGeometry y="60" width="300" height="30" as="geometry" />
        </mxCell>
        <mxCell id="-bWdCGEcmyoKLp3c-T4H-438" value="Thema" style="shape=partialRectangle;html=1;whiteSpace=wrap;connectable=0;fillColor=none;top=0;left=0;bottom=0;right=0;overflow=hidden;strokeColor=inherit;fontSize=14;" parent="-bWdCGEcmyoKLp3c-T4H-437" vertex="1">
          <mxGeometry width="65" height="30" as="geometry">
            <mxRectangle width="65" height="30" as="alternateBounds" />
          </mxGeometry>
        </mxCell>
        <mxCell id="-bWdCGEcmyoKLp3c-T4H-439" value="Datenaustausch Front- &amp;amp; Backend" style="shape=partialRectangle;html=1;whiteSpace=wrap;connectable=0;fillColor=none;top=0;left=0;bottom=0;right=0;align=left;spacingLeft=6;overflow=hidden;strokeColor=inherit;fontSize=14;" parent="-bWdCGEcmyoKLp3c-T4H-437" vertex="1">
          <mxGeometry x="65" width="235" height="30" as="geometry">
            <mxRectangle width="235" height="30" as="alternateBounds" />
          </mxGeometry>
        </mxCell>
        <mxCell id="-bWdCGEcmyoKLp3c-T4H-440" value="" style="shape=tableRow;horizontal=0;startSize=0;swimlaneHead=0;swimlaneBody=0;top=0;left=0;bottom=0;right=0;collapsible=0;dropTarget=0;fillColor=none;points=[[0,0.5],[1,0.5]];portConstraint=eastwest;strokeColor=inherit;fontSize=16;" parent="-bWdCGEcmyoKLp3c-T4H-433" vertex="1">
          <mxGeometry y="90" width="300" height="30" as="geometry" />
        </mxCell>
        <mxCell id="-bWdCGEcmyoKLp3c-T4H-441" value="Ende" style="shape=partialRectangle;html=1;whiteSpace=wrap;connectable=0;fillColor=none;top=0;left=0;bottom=0;right=0;overflow=hidden;strokeColor=inherit;fontSize=14;" parent="-bWdCGEcmyoKLp3c-T4H-440" vertex="1">
          <mxGeometry width="65" height="30" as="geometry">
            <mxRectangle width="65" height="30" as="alternateBounds" />
          </mxGeometry>
        </mxCell>
        <mxCell id="-bWdCGEcmyoKLp3c-T4H-442" value="TBA" style="shape=partialRectangle;html=1;whiteSpace=wrap;connectable=0;fillColor=none;top=0;left=0;bottom=0;right=0;align=left;spacingLeft=6;overflow=hidden;strokeColor=inherit;fontSize=14;" parent="-bWdCGEcmyoKLp3c-T4H-440" vertex="1">
          <mxGeometry x="65" width="235" height="30" as="geometry">
            <mxRectangle width="235" height="30" as="alternateBounds" />
          </mxGeometry>
        </mxCell>
        <mxCell id="-bWdCGEcmyoKLp3c-T4H-443" value="Kommunikation: Kampfstart" style="shape=table;startSize=30;container=1;collapsible=0;childLayout=tableLayout;fixedRows=1;rowLines=0;fontStyle=0;fontSize=14;align=left;fillColor=#eeeeee;strokeColor=#36393d;" parent="1" vertex="1">
          <mxGeometry x="2960" y="-250" width="300" height="120" as="geometry" />
        </mxCell>
        <mxCell id="-bWdCGEcmyoKLp3c-T4H-444" value="" style="shape=tableRow;horizontal=0;startSize=0;swimlaneHead=0;swimlaneBody=0;top=0;left=0;bottom=0;right=0;collapsible=0;dropTarget=0;fillColor=none;points=[[0,0.5],[1,0.5]];portConstraint=eastwest;strokeColor=inherit;fontSize=16;" parent="-bWdCGEcmyoKLp3c-T4H-443" vertex="1">
          <mxGeometry y="30" width="300" height="30" as="geometry" />
        </mxCell>
        <mxCell id="-bWdCGEcmyoKLp3c-T4H-445" value="Start" style="shape=partialRectangle;html=1;whiteSpace=wrap;connectable=0;fillColor=none;top=0;left=0;bottom=0;right=0;overflow=hidden;pointerEvents=1;strokeColor=inherit;fontSize=14;" parent="-bWdCGEcmyoKLp3c-T4H-444" vertex="1">
          <mxGeometry width="65" height="30" as="geometry">
            <mxRectangle width="65" height="30" as="alternateBounds" />
          </mxGeometry>
        </mxCell>
        <mxCell id="-bWdCGEcmyoKLp3c-T4H-446" value="TBA" style="shape=partialRectangle;html=1;whiteSpace=wrap;connectable=0;fillColor=none;top=0;left=0;bottom=0;right=0;align=left;spacingLeft=6;overflow=hidden;strokeColor=inherit;fontSize=14;" parent="-bWdCGEcmyoKLp3c-T4H-444" vertex="1">
          <mxGeometry x="65" width="235" height="30" as="geometry">
            <mxRectangle width="235" height="30" as="alternateBounds" />
          </mxGeometry>
        </mxCell>
        <mxCell id="-bWdCGEcmyoKLp3c-T4H-447" value="" style="shape=tableRow;horizontal=0;startSize=0;swimlaneHead=0;swimlaneBody=0;top=0;left=0;bottom=0;right=0;collapsible=0;dropTarget=0;fillColor=none;points=[[0,0.5],[1,0.5]];portConstraint=eastwest;strokeColor=inherit;fontSize=16;" parent="-bWdCGEcmyoKLp3c-T4H-443" vertex="1">
          <mxGeometry y="60" width="300" height="30" as="geometry" />
        </mxCell>
        <mxCell id="-bWdCGEcmyoKLp3c-T4H-448" value="Thema" style="shape=partialRectangle;html=1;whiteSpace=wrap;connectable=0;fillColor=none;top=0;left=0;bottom=0;right=0;overflow=hidden;strokeColor=inherit;fontSize=14;" parent="-bWdCGEcmyoKLp3c-T4H-447" vertex="1">
          <mxGeometry width="65" height="30" as="geometry">
            <mxRectangle width="65" height="30" as="alternateBounds" />
          </mxGeometry>
        </mxCell>
        <mxCell id="-bWdCGEcmyoKLp3c-T4H-449" value="Datenaustausch Front- &amp;amp; Backend" style="shape=partialRectangle;html=1;whiteSpace=wrap;connectable=0;fillColor=none;top=0;left=0;bottom=0;right=0;align=left;spacingLeft=6;overflow=hidden;strokeColor=inherit;fontSize=14;" parent="-bWdCGEcmyoKLp3c-T4H-447" vertex="1">
          <mxGeometry x="65" width="235" height="30" as="geometry">
            <mxRectangle width="235" height="30" as="alternateBounds" />
          </mxGeometry>
        </mxCell>
        <mxCell id="-bWdCGEcmyoKLp3c-T4H-450" value="" style="shape=tableRow;horizontal=0;startSize=0;swimlaneHead=0;swimlaneBody=0;top=0;left=0;bottom=0;right=0;collapsible=0;dropTarget=0;fillColor=none;points=[[0,0.5],[1,0.5]];portConstraint=eastwest;strokeColor=inherit;fontSize=16;" parent="-bWdCGEcmyoKLp3c-T4H-443" vertex="1">
          <mxGeometry y="90" width="300" height="30" as="geometry" />
        </mxCell>
        <mxCell id="-bWdCGEcmyoKLp3c-T4H-451" value="Ende" style="shape=partialRectangle;html=1;whiteSpace=wrap;connectable=0;fillColor=none;top=0;left=0;bottom=0;right=0;overflow=hidden;strokeColor=inherit;fontSize=14;" parent="-bWdCGEcmyoKLp3c-T4H-450" vertex="1">
          <mxGeometry width="65" height="30" as="geometry">
            <mxRectangle width="65" height="30" as="alternateBounds" />
          </mxGeometry>
        </mxCell>
        <mxCell id="-bWdCGEcmyoKLp3c-T4H-452" value="TBA" style="shape=partialRectangle;html=1;whiteSpace=wrap;connectable=0;fillColor=none;top=0;left=0;bottom=0;right=0;align=left;spacingLeft=6;overflow=hidden;strokeColor=inherit;fontSize=14;" parent="-bWdCGEcmyoKLp3c-T4H-450" vertex="1">
          <mxGeometry x="65" width="235" height="30" as="geometry">
            <mxRectangle width="235" height="30" as="alternateBounds" />
          </mxGeometry>
        </mxCell>
        <mxCell id="-bWdCGEcmyoKLp3c-T4H-521" style="edgeStyle=orthogonalEdgeStyle;rounded=0;orthogonalLoop=1;jettySize=auto;html=1;exitX=0.5;exitY=0;exitDx=0;exitDy=0;entryX=0;entryY=0.5;entryDx=0;entryDy=0;endArrow=none;startFill=0;" parent="1" source="-bWdCGEcmyoKLp3c-T4H-453" target="-bWdCGEcmyoKLp3c-T4H-511" edge="1">
          <mxGeometry relative="1" as="geometry" />
        </mxCell>
        <mxCell id="-bWdCGEcmyoKLp3c-T4H-453" value="Kommunikation: Kampfende" style="shape=table;startSize=30;container=1;collapsible=0;childLayout=tableLayout;fixedRows=1;rowLines=0;fontStyle=0;fontSize=14;align=left;fillColor=#eeeeee;strokeColor=#36393d;" parent="1" vertex="1">
          <mxGeometry x="3600" y="-250" width="300" height="120" as="geometry" />
        </mxCell>
        <mxCell id="-bWdCGEcmyoKLp3c-T4H-454" value="" style="shape=tableRow;horizontal=0;startSize=0;swimlaneHead=0;swimlaneBody=0;top=0;left=0;bottom=0;right=0;collapsible=0;dropTarget=0;fillColor=none;points=[[0,0.5],[1,0.5]];portConstraint=eastwest;strokeColor=inherit;fontSize=16;" parent="-bWdCGEcmyoKLp3c-T4H-453" vertex="1">
          <mxGeometry y="30" width="300" height="30" as="geometry" />
        </mxCell>
        <mxCell id="-bWdCGEcmyoKLp3c-T4H-455" value="Start" style="shape=partialRectangle;html=1;whiteSpace=wrap;connectable=0;fillColor=none;top=0;left=0;bottom=0;right=0;overflow=hidden;pointerEvents=1;strokeColor=inherit;fontSize=14;" parent="-bWdCGEcmyoKLp3c-T4H-454" vertex="1">
          <mxGeometry width="65" height="30" as="geometry">
            <mxRectangle width="65" height="30" as="alternateBounds" />
          </mxGeometry>
        </mxCell>
        <mxCell id="-bWdCGEcmyoKLp3c-T4H-456" value="TBA" style="shape=partialRectangle;html=1;whiteSpace=wrap;connectable=0;fillColor=none;top=0;left=0;bottom=0;right=0;align=left;spacingLeft=6;overflow=hidden;strokeColor=inherit;fontSize=14;" parent="-bWdCGEcmyoKLp3c-T4H-454" vertex="1">
          <mxGeometry x="65" width="235" height="30" as="geometry">
            <mxRectangle width="235" height="30" as="alternateBounds" />
          </mxGeometry>
        </mxCell>
        <mxCell id="-bWdCGEcmyoKLp3c-T4H-457" value="" style="shape=tableRow;horizontal=0;startSize=0;swimlaneHead=0;swimlaneBody=0;top=0;left=0;bottom=0;right=0;collapsible=0;dropTarget=0;fillColor=none;points=[[0,0.5],[1,0.5]];portConstraint=eastwest;strokeColor=inherit;fontSize=16;" parent="-bWdCGEcmyoKLp3c-T4H-453" vertex="1">
          <mxGeometry y="60" width="300" height="30" as="geometry" />
        </mxCell>
        <mxCell id="-bWdCGEcmyoKLp3c-T4H-458" value="Thema" style="shape=partialRectangle;html=1;whiteSpace=wrap;connectable=0;fillColor=none;top=0;left=0;bottom=0;right=0;overflow=hidden;strokeColor=inherit;fontSize=14;" parent="-bWdCGEcmyoKLp3c-T4H-457" vertex="1">
          <mxGeometry width="65" height="30" as="geometry">
            <mxRectangle width="65" height="30" as="alternateBounds" />
          </mxGeometry>
        </mxCell>
        <mxCell id="-bWdCGEcmyoKLp3c-T4H-459" value="Datenaustausch Front- &amp;amp; Backend" style="shape=partialRectangle;html=1;whiteSpace=wrap;connectable=0;fillColor=none;top=0;left=0;bottom=0;right=0;align=left;spacingLeft=6;overflow=hidden;strokeColor=inherit;fontSize=14;" parent="-bWdCGEcmyoKLp3c-T4H-457" vertex="1">
          <mxGeometry x="65" width="235" height="30" as="geometry">
            <mxRectangle width="235" height="30" as="alternateBounds" />
          </mxGeometry>
        </mxCell>
        <mxCell id="-bWdCGEcmyoKLp3c-T4H-460" value="" style="shape=tableRow;horizontal=0;startSize=0;swimlaneHead=0;swimlaneBody=0;top=0;left=0;bottom=0;right=0;collapsible=0;dropTarget=0;fillColor=none;points=[[0,0.5],[1,0.5]];portConstraint=eastwest;strokeColor=inherit;fontSize=16;" parent="-bWdCGEcmyoKLp3c-T4H-453" vertex="1">
          <mxGeometry y="90" width="300" height="30" as="geometry" />
        </mxCell>
        <mxCell id="-bWdCGEcmyoKLp3c-T4H-461" value="Ende" style="shape=partialRectangle;html=1;whiteSpace=wrap;connectable=0;fillColor=none;top=0;left=0;bottom=0;right=0;overflow=hidden;strokeColor=inherit;fontSize=14;" parent="-bWdCGEcmyoKLp3c-T4H-460" vertex="1">
          <mxGeometry width="65" height="30" as="geometry">
            <mxRectangle width="65" height="30" as="alternateBounds" />
          </mxGeometry>
        </mxCell>
        <mxCell id="-bWdCGEcmyoKLp3c-T4H-462" value="TBA" style="shape=partialRectangle;html=1;whiteSpace=wrap;connectable=0;fillColor=none;top=0;left=0;bottom=0;right=0;align=left;spacingLeft=6;overflow=hidden;strokeColor=inherit;fontSize=14;" parent="-bWdCGEcmyoKLp3c-T4H-460" vertex="1">
          <mxGeometry x="65" width="235" height="30" as="geometry">
            <mxRectangle width="235" height="30" as="alternateBounds" />
          </mxGeometry>
        </mxCell>
        <mxCell id="-bWdCGEcmyoKLp3c-T4H-463" value="Kommunikation: Shop" style="shape=table;startSize=30;container=1;collapsible=0;childLayout=tableLayout;fixedRows=1;rowLines=0;fontStyle=0;fontSize=14;align=left;fillColor=#eeeeee;strokeColor=#36393d;" parent="1" vertex="1">
          <mxGeometry x="3280" y="-250" width="300" height="120" as="geometry" />
        </mxCell>
        <mxCell id="-bWdCGEcmyoKLp3c-T4H-464" value="" style="shape=tableRow;horizontal=0;startSize=0;swimlaneHead=0;swimlaneBody=0;top=0;left=0;bottom=0;right=0;collapsible=0;dropTarget=0;fillColor=none;points=[[0,0.5],[1,0.5]];portConstraint=eastwest;strokeColor=inherit;fontSize=16;" parent="-bWdCGEcmyoKLp3c-T4H-463" vertex="1">
          <mxGeometry y="30" width="300" height="30" as="geometry" />
        </mxCell>
        <mxCell id="-bWdCGEcmyoKLp3c-T4H-465" value="Start" style="shape=partialRectangle;html=1;whiteSpace=wrap;connectable=0;fillColor=none;top=0;left=0;bottom=0;right=0;overflow=hidden;pointerEvents=1;strokeColor=inherit;fontSize=14;" parent="-bWdCGEcmyoKLp3c-T4H-464" vertex="1">
          <mxGeometry width="65" height="30" as="geometry">
            <mxRectangle width="65" height="30" as="alternateBounds" />
          </mxGeometry>
        </mxCell>
        <mxCell id="-bWdCGEcmyoKLp3c-T4H-466" value="TBA" style="shape=partialRectangle;html=1;whiteSpace=wrap;connectable=0;fillColor=none;top=0;left=0;bottom=0;right=0;align=left;spacingLeft=6;overflow=hidden;strokeColor=inherit;fontSize=14;" parent="-bWdCGEcmyoKLp3c-T4H-464" vertex="1">
          <mxGeometry x="65" width="235" height="30" as="geometry">
            <mxRectangle width="235" height="30" as="alternateBounds" />
          </mxGeometry>
        </mxCell>
        <mxCell id="-bWdCGEcmyoKLp3c-T4H-467" value="" style="shape=tableRow;horizontal=0;startSize=0;swimlaneHead=0;swimlaneBody=0;top=0;left=0;bottom=0;right=0;collapsible=0;dropTarget=0;fillColor=none;points=[[0,0.5],[1,0.5]];portConstraint=eastwest;strokeColor=inherit;fontSize=16;" parent="-bWdCGEcmyoKLp3c-T4H-463" vertex="1">
          <mxGeometry y="60" width="300" height="30" as="geometry" />
        </mxCell>
        <mxCell id="-bWdCGEcmyoKLp3c-T4H-468" value="Thema" style="shape=partialRectangle;html=1;whiteSpace=wrap;connectable=0;fillColor=none;top=0;left=0;bottom=0;right=0;overflow=hidden;strokeColor=inherit;fontSize=14;" parent="-bWdCGEcmyoKLp3c-T4H-467" vertex="1">
          <mxGeometry width="65" height="30" as="geometry">
            <mxRectangle width="65" height="30" as="alternateBounds" />
          </mxGeometry>
        </mxCell>
        <mxCell id="-bWdCGEcmyoKLp3c-T4H-469" value="Datenaustausch Front- &amp;amp; Backend" style="shape=partialRectangle;html=1;whiteSpace=wrap;connectable=0;fillColor=none;top=0;left=0;bottom=0;right=0;align=left;spacingLeft=6;overflow=hidden;strokeColor=inherit;fontSize=14;" parent="-bWdCGEcmyoKLp3c-T4H-467" vertex="1">
          <mxGeometry x="65" width="235" height="30" as="geometry">
            <mxRectangle width="235" height="30" as="alternateBounds" />
          </mxGeometry>
        </mxCell>
        <mxCell id="-bWdCGEcmyoKLp3c-T4H-470" value="" style="shape=tableRow;horizontal=0;startSize=0;swimlaneHead=0;swimlaneBody=0;top=0;left=0;bottom=0;right=0;collapsible=0;dropTarget=0;fillColor=none;points=[[0,0.5],[1,0.5]];portConstraint=eastwest;strokeColor=inherit;fontSize=16;" parent="-bWdCGEcmyoKLp3c-T4H-463" vertex="1">
          <mxGeometry y="90" width="300" height="30" as="geometry" />
        </mxCell>
        <mxCell id="-bWdCGEcmyoKLp3c-T4H-471" value="Ende" style="shape=partialRectangle;html=1;whiteSpace=wrap;connectable=0;fillColor=none;top=0;left=0;bottom=0;right=0;overflow=hidden;strokeColor=inherit;fontSize=14;" parent="-bWdCGEcmyoKLp3c-T4H-470" vertex="1">
          <mxGeometry width="65" height="30" as="geometry">
            <mxRectangle width="65" height="30" as="alternateBounds" />
          </mxGeometry>
        </mxCell>
        <mxCell id="-bWdCGEcmyoKLp3c-T4H-472" value="TBA" style="shape=partialRectangle;html=1;whiteSpace=wrap;connectable=0;fillColor=none;top=0;left=0;bottom=0;right=0;align=left;spacingLeft=6;overflow=hidden;strokeColor=inherit;fontSize=14;" parent="-bWdCGEcmyoKLp3c-T4H-470" vertex="1">
          <mxGeometry x="65" width="235" height="30" as="geometry">
            <mxRectangle width="235" height="30" as="alternateBounds" />
          </mxGeometry>
        </mxCell>
        <mxCell id="-bWdCGEcmyoKLp3c-T4H-473" value="Kommunikation: Optionen" style="shape=table;startSize=30;container=1;collapsible=0;childLayout=tableLayout;fixedRows=1;rowLines=0;fontStyle=0;fontSize=14;align=left;fillColor=#eeeeee;strokeColor=#36393d;" parent="1" vertex="1">
          <mxGeometry x="2960" y="-390" width="300" height="120" as="geometry" />
        </mxCell>
        <mxCell id="-bWdCGEcmyoKLp3c-T4H-474" value="" style="shape=tableRow;horizontal=0;startSize=0;swimlaneHead=0;swimlaneBody=0;top=0;left=0;bottom=0;right=0;collapsible=0;dropTarget=0;fillColor=none;points=[[0,0.5],[1,0.5]];portConstraint=eastwest;strokeColor=inherit;fontSize=16;" parent="-bWdCGEcmyoKLp3c-T4H-473" vertex="1">
          <mxGeometry y="30" width="300" height="30" as="geometry" />
        </mxCell>
        <mxCell id="-bWdCGEcmyoKLp3c-T4H-475" value="Start" style="shape=partialRectangle;html=1;whiteSpace=wrap;connectable=0;fillColor=none;top=0;left=0;bottom=0;right=0;overflow=hidden;pointerEvents=1;strokeColor=inherit;fontSize=14;" parent="-bWdCGEcmyoKLp3c-T4H-474" vertex="1">
          <mxGeometry width="65" height="30" as="geometry">
            <mxRectangle width="65" height="30" as="alternateBounds" />
          </mxGeometry>
        </mxCell>
        <mxCell id="-bWdCGEcmyoKLp3c-T4H-476" value="TBA" style="shape=partialRectangle;html=1;whiteSpace=wrap;connectable=0;fillColor=none;top=0;left=0;bottom=0;right=0;align=left;spacingLeft=6;overflow=hidden;strokeColor=inherit;fontSize=14;" parent="-bWdCGEcmyoKLp3c-T4H-474" vertex="1">
          <mxGeometry x="65" width="235" height="30" as="geometry">
            <mxRectangle width="235" height="30" as="alternateBounds" />
          </mxGeometry>
        </mxCell>
        <mxCell id="-bWdCGEcmyoKLp3c-T4H-477" value="" style="shape=tableRow;horizontal=0;startSize=0;swimlaneHead=0;swimlaneBody=0;top=0;left=0;bottom=0;right=0;collapsible=0;dropTarget=0;fillColor=none;points=[[0,0.5],[1,0.5]];portConstraint=eastwest;strokeColor=inherit;fontSize=16;" parent="-bWdCGEcmyoKLp3c-T4H-473" vertex="1">
          <mxGeometry y="60" width="300" height="30" as="geometry" />
        </mxCell>
        <mxCell id="-bWdCGEcmyoKLp3c-T4H-478" value="Thema" style="shape=partialRectangle;html=1;whiteSpace=wrap;connectable=0;fillColor=none;top=0;left=0;bottom=0;right=0;overflow=hidden;strokeColor=inherit;fontSize=14;" parent="-bWdCGEcmyoKLp3c-T4H-477" vertex="1">
          <mxGeometry width="65" height="30" as="geometry">
            <mxRectangle width="65" height="30" as="alternateBounds" />
          </mxGeometry>
        </mxCell>
        <mxCell id="-bWdCGEcmyoKLp3c-T4H-479" value="Datenaustausch Front- &amp;amp; Backend" style="shape=partialRectangle;html=1;whiteSpace=wrap;connectable=0;fillColor=none;top=0;left=0;bottom=0;right=0;align=left;spacingLeft=6;overflow=hidden;strokeColor=inherit;fontSize=14;" parent="-bWdCGEcmyoKLp3c-T4H-477" vertex="1">
          <mxGeometry x="65" width="235" height="30" as="geometry">
            <mxRectangle width="235" height="30" as="alternateBounds" />
          </mxGeometry>
        </mxCell>
        <mxCell id="-bWdCGEcmyoKLp3c-T4H-480" value="" style="shape=tableRow;horizontal=0;startSize=0;swimlaneHead=0;swimlaneBody=0;top=0;left=0;bottom=0;right=0;collapsible=0;dropTarget=0;fillColor=none;points=[[0,0.5],[1,0.5]];portConstraint=eastwest;strokeColor=inherit;fontSize=16;" parent="-bWdCGEcmyoKLp3c-T4H-473" vertex="1">
          <mxGeometry y="90" width="300" height="30" as="geometry" />
        </mxCell>
        <mxCell id="-bWdCGEcmyoKLp3c-T4H-481" value="Ende" style="shape=partialRectangle;html=1;whiteSpace=wrap;connectable=0;fillColor=none;top=0;left=0;bottom=0;right=0;overflow=hidden;strokeColor=inherit;fontSize=14;" parent="-bWdCGEcmyoKLp3c-T4H-480" vertex="1">
          <mxGeometry width="65" height="30" as="geometry">
            <mxRectangle width="65" height="30" as="alternateBounds" />
          </mxGeometry>
        </mxCell>
        <mxCell id="-bWdCGEcmyoKLp3c-T4H-482" value="TBA" style="shape=partialRectangle;html=1;whiteSpace=wrap;connectable=0;fillColor=none;top=0;left=0;bottom=0;right=0;align=left;spacingLeft=6;overflow=hidden;strokeColor=inherit;fontSize=14;" parent="-bWdCGEcmyoKLp3c-T4H-480" vertex="1">
          <mxGeometry x="65" width="235" height="30" as="geometry">
            <mxRectangle width="235" height="30" as="alternateBounds" />
          </mxGeometry>
        </mxCell>
        <mxCell id="-bWdCGEcmyoKLp3c-T4H-486" value="" style="group" parent="1" vertex="1" connectable="0">
          <mxGeometry x="2630" y="-300" width="260" height="170" as="geometry" />
        </mxCell>
        <mxCell id="-bWdCGEcmyoKLp3c-T4H-487" value="" style="group" parent="-bWdCGEcmyoKLp3c-T4H-486" vertex="1" connectable="0">
          <mxGeometry width="260" height="170" as="geometry" />
        </mxCell>
        <mxCell id="-bWdCGEcmyoKLp3c-T4H-488" value="&lt;div&gt;Besprechung&lt;/div&gt;&lt;div&gt;ZusammenfÃ¼hren aller Menus&lt;/div&gt;" style="shape=hexagon;perimeter=hexagonPerimeter2;whiteSpace=wrap;html=1;fixedSize=1;fillColor=#a20025;strokeColor=#6F0000;fontSize=14;fontColor=#ffffff;" parent="-bWdCGEcmyoKLp3c-T4H-487" vertex="1">
          <mxGeometry x="10" y="70" width="240" height="90" as="geometry" />
        </mxCell>
        <mxCell id="-bWdCGEcmyoKLp3c-T4H-489" value="" style="swimlane;startSize=0;gradientColor=default;fillColor=#FFFFFF;" parent="-bWdCGEcmyoKLp3c-T4H-487" vertex="1">
          <mxGeometry width="260" height="170" as="geometry" />
        </mxCell>
        <mxCell id="-bWdCGEcmyoKLp3c-T4H-490" value="4. Deadline: TBA&lt;br&gt;Termin: TBA" style="rounded=0;whiteSpace=wrap;html=1;fontSize=16;fillColor=#a20025;fontColor=#ffffff;strokeColor=#6F0000;" parent="-bWdCGEcmyoKLp3c-T4H-489" vertex="1">
          <mxGeometry width="260" height="60" as="geometry" />
        </mxCell>
        <mxCell id="-bWdCGEcmyoKLp3c-T4H-491" value="-" style="shape=display;whiteSpace=wrap;html=1;align=right;spacing=8;fillColor=#f5f5f5;strokeColor=#666666;fontColor=#333333;fontSize=14;" parent="1" vertex="1">
          <mxGeometry x="2450" y="-260" width="120" height="40" as="geometry" />
        </mxCell>
        <mxCell id="-bWdCGEcmyoKLp3c-T4H-492" style="edgeStyle=orthogonalEdgeStyle;rounded=0;orthogonalLoop=1;jettySize=auto;html=1;exitX=1;exitY=0.5;exitDx=0;exitDy=0;entryX=0.5;entryY=0;entryDx=0;entryDy=0;endArrow=none;startFill=0;" parent="1" source="-bWdCGEcmyoKLp3c-T4H-379" target="-bWdCGEcmyoKLp3c-T4H-490" edge="1">
          <mxGeometry relative="1" as="geometry" />
        </mxCell>
        <mxCell id="-bWdCGEcmyoKLp3c-T4H-493" style="edgeStyle=orthogonalEdgeStyle;rounded=0;orthogonalLoop=1;jettySize=auto;html=1;exitX=1;exitY=0.5;exitDx=0;exitDy=0;entryX=0;entryY=0.5;entryDx=0;entryDy=0;endArrow=none;startFill=0;" parent="1" source="-bWdCGEcmyoKLp3c-T4H-489" target="-bWdCGEcmyoKLp3c-T4H-447" edge="1">
          <mxGeometry relative="1" as="geometry" />
        </mxCell>
        <mxCell id="-bWdCGEcmyoKLp3c-T4H-494" style="edgeStyle=orthogonalEdgeStyle;rounded=0;orthogonalLoop=1;jettySize=auto;html=1;exitX=1;exitY=0.5;exitDx=0;exitDy=0;entryX=0;entryY=0.5;entryDx=0;entryDy=0;endArrow=none;startFill=0;" parent="1" source="-bWdCGEcmyoKLp3c-T4H-489" target="-bWdCGEcmyoKLp3c-T4H-477" edge="1">
          <mxGeometry relative="1" as="geometry" />
        </mxCell>
        <mxCell id="-bWdCGEcmyoKLp3c-T4H-495" style="edgeStyle=orthogonalEdgeStyle;rounded=0;orthogonalLoop=1;jettySize=auto;html=1;exitX=1;exitY=0.5;exitDx=0;exitDy=0;entryX=0;entryY=0.5;entryDx=0;entryDy=0;endArrow=none;startFill=0;" parent="1" source="-bWdCGEcmyoKLp3c-T4H-489" target="-bWdCGEcmyoKLp3c-T4H-419" edge="1">
          <mxGeometry relative="1" as="geometry" />
        </mxCell>
        <mxCell id="-bWdCGEcmyoKLp3c-T4H-496" style="edgeStyle=orthogonalEdgeStyle;rounded=0;orthogonalLoop=1;jettySize=auto;html=1;exitX=1;exitY=0.5;exitDx=0;exitDy=0;entryX=0;entryY=0.5;entryDx=0;entryDy=0;endArrow=none;startFill=0;" parent="1" source="-bWdCGEcmyoKLp3c-T4H-419" target="-bWdCGEcmyoKLp3c-T4H-437" edge="1">
          <mxGeometry relative="1" as="geometry" />
        </mxCell>
        <mxCell id="-bWdCGEcmyoKLp3c-T4H-497" style="edgeStyle=orthogonalEdgeStyle;rounded=0;orthogonalLoop=1;jettySize=auto;html=1;exitX=1;exitY=0.5;exitDx=0;exitDy=0;entryX=0;entryY=0.5;entryDx=0;entryDy=0;endArrow=none;startFill=0;" parent="1" source="-bWdCGEcmyoKLp3c-T4H-447" target="-bWdCGEcmyoKLp3c-T4H-467" edge="1">
          <mxGeometry relative="1" as="geometry" />
        </mxCell>
        <mxCell id="-bWdCGEcmyoKLp3c-T4H-498" style="edgeStyle=orthogonalEdgeStyle;rounded=0;orthogonalLoop=1;jettySize=auto;html=1;exitX=1;exitY=0.5;exitDx=0;exitDy=0;entryX=0;entryY=0.5;entryDx=0;entryDy=0;endArrow=none;startFill=0;" parent="1" source="-bWdCGEcmyoKLp3c-T4H-467" target="-bWdCGEcmyoKLp3c-T4H-457" edge="1">
          <mxGeometry relative="1" as="geometry" />
        </mxCell>
        <mxCell id="-bWdCGEcmyoKLp3c-T4H-507" value="Datenspeicherung: Kampf / Statistik" style="shape=table;startSize=30;container=1;collapsible=0;childLayout=tableLayout;fixedRows=1;rowLines=0;fontStyle=0;fontSize=14;align=left;fillColor=#eeeeee;strokeColor=#36393d;" parent="1" vertex="1">
          <mxGeometry x="3800" y="-440" width="360" height="140" as="geometry" />
        </mxCell>
        <mxCell id="-bWdCGEcmyoKLp3c-T4H-508" value="" style="shape=tableRow;horizontal=0;startSize=0;swimlaneHead=0;swimlaneBody=0;top=0;left=0;bottom=0;right=0;collapsible=0;dropTarget=0;fillColor=none;points=[[0,0.5],[1,0.5]];portConstraint=eastwest;strokeColor=inherit;fontSize=16;" parent="-bWdCGEcmyoKLp3c-T4H-507" vertex="1">
          <mxGeometry y="30" width="360" height="30" as="geometry" />
        </mxCell>
        <mxCell id="-bWdCGEcmyoKLp3c-T4H-509" value="Start" style="shape=partialRectangle;html=1;whiteSpace=wrap;connectable=0;fillColor=none;top=0;left=0;bottom=0;right=0;overflow=hidden;pointerEvents=1;strokeColor=inherit;fontSize=14;" parent="-bWdCGEcmyoKLp3c-T4H-508" vertex="1">
          <mxGeometry width="78" height="30" as="geometry">
            <mxRectangle width="78" height="30" as="alternateBounds" />
          </mxGeometry>
        </mxCell>
        <mxCell id="-bWdCGEcmyoKLp3c-T4H-510" value="TBA" style="shape=partialRectangle;html=1;whiteSpace=wrap;connectable=0;fillColor=none;top=0;left=0;bottom=0;right=0;align=left;spacingLeft=6;overflow=hidden;strokeColor=inherit;fontSize=14;" parent="-bWdCGEcmyoKLp3c-T4H-508" vertex="1">
          <mxGeometry x="78" width="282" height="30" as="geometry">
            <mxRectangle width="282" height="30" as="alternateBounds" />
          </mxGeometry>
        </mxCell>
        <mxCell id="-bWdCGEcmyoKLp3c-T4H-511" value="" style="shape=tableRow;horizontal=0;startSize=0;swimlaneHead=0;swimlaneBody=0;top=0;left=0;bottom=0;right=0;collapsible=0;dropTarget=0;fillColor=none;points=[[0,0.5],[1,0.5]];portConstraint=eastwest;strokeColor=inherit;fontSize=16;" parent="-bWdCGEcmyoKLp3c-T4H-507" vertex="1">
          <mxGeometry y="60" width="360" height="50" as="geometry" />
        </mxCell>
        <mxCell id="-bWdCGEcmyoKLp3c-T4H-512" value="Thema" style="shape=partialRectangle;html=1;whiteSpace=wrap;connectable=0;fillColor=none;top=0;left=0;bottom=0;right=0;overflow=hidden;strokeColor=inherit;fontSize=14;" parent="-bWdCGEcmyoKLp3c-T4H-511" vertex="1">
          <mxGeometry width="78" height="50" as="geometry">
            <mxRectangle width="78" height="50" as="alternateBounds" />
          </mxGeometry>
        </mxCell>
        <mxCell id="-bWdCGEcmyoKLp3c-T4H-513" value="Speicherung von Kampfdaten und aktualisieren der Statistik" style="shape=partialRectangle;html=1;whiteSpace=wrap;connectable=0;fillColor=none;top=0;left=0;bottom=0;right=0;align=left;spacingLeft=6;overflow=hidden;strokeColor=inherit;fontSize=14;" parent="-bWdCGEcmyoKLp3c-T4H-511" vertex="1">
          <mxGeometry x="78" width="282" height="50" as="geometry">
            <mxRectangle width="282" height="50" as="alternateBounds" />
          </mxGeometry>
        </mxCell>
        <mxCell id="-bWdCGEcmyoKLp3c-T4H-514" value="" style="shape=tableRow;horizontal=0;startSize=0;swimlaneHead=0;swimlaneBody=0;top=0;left=0;bottom=0;right=0;collapsible=0;dropTarget=0;fillColor=none;points=[[0,0.5],[1,0.5]];portConstraint=eastwest;strokeColor=inherit;fontSize=16;" parent="-bWdCGEcmyoKLp3c-T4H-507" vertex="1">
          <mxGeometry y="110" width="360" height="30" as="geometry" />
        </mxCell>
        <mxCell id="-bWdCGEcmyoKLp3c-T4H-515" value="Ende" style="shape=partialRectangle;html=1;whiteSpace=wrap;connectable=0;fillColor=none;top=0;left=0;bottom=0;right=0;overflow=hidden;strokeColor=inherit;fontSize=14;" parent="-bWdCGEcmyoKLp3c-T4H-514" vertex="1">
          <mxGeometry width="78" height="30" as="geometry">
            <mxRectangle width="78" height="30" as="alternateBounds" />
          </mxGeometry>
        </mxCell>
        <mxCell id="-bWdCGEcmyoKLp3c-T4H-516" value="TBA" style="shape=partialRectangle;html=1;whiteSpace=wrap;connectable=0;fillColor=none;top=0;left=0;bottom=0;right=0;align=left;spacingLeft=6;overflow=hidden;strokeColor=inherit;fontSize=14;" parent="-bWdCGEcmyoKLp3c-T4H-514" vertex="1">
          <mxGeometry x="78" width="282" height="30" as="geometry">
            <mxRectangle width="282" height="30" as="alternateBounds" />
          </mxGeometry>
        </mxCell>
        <mxCell id="-bWdCGEcmyoKLp3c-T4H-523" value="T E S T P H A S E" style="html=1;shadow=0;dashed=0;align=center;verticalAlign=middle;shape=mxgraph.arrows2.arrow;dy=0;dx=30;notch=30;fontSize=16;fontStyle=1;fillColor=#ffcccc;strokeColor=#36393d;" parent="1" vertex="1">
          <mxGeometry x="4440" y="-110" width="390" height="40" as="geometry" />
        </mxCell>
        <mxCell id="-bWdCGEcmyoKLp3c-T4H-524" value="P H A S E&amp;nbsp; &amp;nbsp;8 :&amp;nbsp; &amp;nbsp;O P T I M I E R U N G" style="html=1;shadow=0;dashed=0;align=center;verticalAlign=middle;shape=mxgraph.arrows2.arrow;dy=0;dx=30;notch=30;fontSize=16;fontStyle=1;fillColor=#f9f7ed;strokeColor=#36393d;" parent="1" vertex="1">
          <mxGeometry x="4800" y="-110" width="550" height="40" as="geometry" />
        </mxCell>
        <mxCell id="-bWdCGEcmyoKLp3c-T4H-526" value="F I N A L I S I E R U N G" style="html=1;shadow=0;dashed=0;align=center;verticalAlign=middle;shape=mxgraph.arrows2.arrow;dy=0;dx=30;notch=30;fontSize=16;fontStyle=1;fillColor=#ffcccc;strokeColor=#36393d;" parent="1" vertex="1">
          <mxGeometry x="5320" y="-110" width="390" height="40" as="geometry" />
        </mxCell>
        <mxCell id="O9gjmnlDJFdTWOWOx3cr-1" value="API Doku aktualisieren" style="shape=display;whiteSpace=wrap;html=1;align=right;spacing=8;fillColor=#f5f5f5;strokeColor=#666666;fontColor=#333333;fontSize=14;" vertex="1" parent="1">
          <mxGeometry x="2050" y="-320" width="220" height="40" as="geometry" />
        </mxCell>
      </root>
    </mxGraphModel>
  </diagram>
</mxfile>
